<?xml version="1.0" encoding="UTF-8"?>
<svg version="1.1" xmlns="http://www.w3.org/2000/svg" width="81" height="114">
<path d="M0 0 C26.73 0 53.46 0 81 0 C81 37.62 81 75.24 81 114 C54.27 114 27.54 114 0 114 C0 76.38 0 38.76 0 0 Z " fill="#FDFDFC" transform="translate(0,0)"/>
<path d="M0 0 C3 1 3 1 4.90234375 4.31640625 C5.59091433 5.72684385 6.26888681 7.14249293 6.9375 8.5625 C7.27201172 9.25408203 7.60652344 9.94566406 7.95117188 10.65820312 C8.62929117 12.0601723 9.30391328 13.4638382 9.97509766 14.86914062 C12.15867137 19.40897659 14.43116285 23.90295692 16.75 28.375 C18 31 18 31 18 33 C18.66 33 19.32 33 20 33 C21.1734316 35.60130627 22.33892508 38.20568508 23.5 40.8125 C23.83386719 41.55048828 24.16773438 42.28847656 24.51171875 43.04882812 C24.98544922 44.11713867 24.98544922 44.11713867 25.46875 45.20703125 C25.76201172 45.8616333 26.05527344 46.51623535 26.35742188 47.19067383 C27 49 27 49 27 52 C27.66 52 28.32 52 29 52 C29.495 54.475 29.495 54.475 30 57 C30.66 57 31.32 57 32 57 C32.495 59.97 32.495 59.97 33 63 C34.485 63.495 34.485 63.495 36 64 C36 64.66 36 65.32 36 66 C36.66 66 37.32 66 38 66 C38 67.32 38 68.64 38 70 C37.34 70 36.68 70 36 70 C35.773125 70.598125 35.54625 71.19625 35.3125 71.8125 C34 74 34 74 31.5625 75.4375 C28.87280561 76.8034864 28.87280561 76.8034864 27.625 79.3125 C25.71640081 82.46902942 23.48247302 84.29351609 20.62109375 86.5703125 C18.74913641 88.09773544 18.74913641 88.09773544 17 91 C12.61366057 93.81441092 8.03567742 93.50994202 3 93 C-1.80258689 91.31020091 -4.04635296 89.07399591 -7 85 C-9.12399867 82.62112149 -9.86597409 82.0446753 -13 81 C-13 80.34 -13 79.68 -13 79 C-13.66 79 -14.32 79 -15 79 C-17.125 77.125 -17.125 77.125 -19 75 C-19 74.34 -19 73.68 -19 73 C-19.99 72.67 -20.98 72.34 -22 72 C-22 71.34 -22 70.68 -22 70 C-22.99 69.67 -23.98 69.34 -25 69 C-25 68.34 -25 67.68 -25 67 C-25.99 66.67 -26.98 66.34 -28 66 C-28 65.34 -28 64.68 -28 64 C-29.65 63.67 -31.3 63.34 -33 63 C-33 62.01 -33 61.02 -33 60 C-32.34 60 -31.68 60 -31 60 C-30.67 58.35 -30.34 56.7 -30 55 C-29.34 55 -28.68 55 -28 55 C-27.76216797 54.1646875 -27.76216797 54.1646875 -27.51953125 53.3125 C-25.99629543 48.33042483 -24.08803816 44.32195609 -21.20703125 39.99609375 C-19.28985768 36.82562225 -18.18793606 33.50128523 -17 30 C-16.34 30 -15.68 30 -15 30 C-15 28.35 -15 26.7 -15 25 C-14.01 24.67 -13.02 24.34 -12 24 C-12 23.34 -12 22.68 -12 22 C-11.2575 22.33 -10.515 22.66 -9.75 23 C-6.86116688 24.22782871 -6.86116688 24.22782871 -3 24 C-3 24.99 -3 25.98 -3 27 C-3.66 27 -4.32 27 -5 27 C-5 27.66 -5 28.32 -5 29 C-4.34 29 -3.68 29 -3 29 C-3 29.66 -3 30.32 -3 31 C-2.34 31 -1.68 31 -1 31 C-0.67 20.77 -0.34 10.54 0 0 Z " fill="#4C401C" transform="translate(37,9)"/>
<path d="M0 0 C0.66 0 1.32 0 2 0 C3.10514766 3.31544299 3.32107631 6.20410111 3.5625 9.6875 C3.68818359 11.45673828 3.68818359 11.45673828 3.81640625 13.26171875 C3.87699219 14.16535156 3.93757813 15.06898437 4 16 C5.32 16 6.64 16 8 16 C8 15.01 8 14.02 8 13 C9.32 13 10.64 13 12 13 C12.33 12.01 12.66 11.02 13 10 C13.33 10 13.66 10 14 10 C14 16.93 14 23.86 14 31 C13.01 30.67 12.02 30.34 11 30 C10.67 29.01 10.34 28.02 10 27 C9.01 26.67 8.02 26.34 7 26 C7 27.32 7 28.64 7 30 C6.34 30 5.68 30 5 30 C5 35.28 5 40.56 5 46 C5.99 45.505 5.99 45.505 7 45 C7.33 44.01 7.66 43.02 8 42 C8.66 42 9.32 42 10 42 C10.33 41.01 10.66 40.02 11 39 C11.66 39 12.32 39 13 39 C13.33 38.01 13.66 37.02 14 36 C15.05127928 39.38391578 15.04087598 42.33203425 14.87890625 45.859375 C14.83056641 46.97441406 14.78222656 48.08945313 14.73242188 49.23828125 C14.67634766 50.39714844 14.62027344 51.55601563 14.5625 52.75 C14.51029297 53.92433594 14.45808594 55.09867188 14.40429688 56.30859375 C14.27473776 59.20600664 14.13977553 62.10306493 14 65 C14.53109375 64.50628906 15.0621875 64.01257813 15.609375 63.50390625 C16.31578125 62.86324219 17.0221875 62.22257812 17.75 61.5625 C18.44609375 60.92441406 19.1421875 60.28632812 19.859375 59.62890625 C21.98792725 58.00918675 23.39023405 57.41732744 26 57 C26 56.34 26 55.68 26 55 C26.66 54.67 27.32 54.34 28 54 C28.33 53.01 28.66 52.02 29 51 C30.70703125 49.5703125 30.70703125 49.5703125 32.8125 48.125 C36.15196535 45.72774095 38.52182811 43.30422918 41 40 C41.99 39.34 42.98 38.68 44 38 C44.72382467 35.94074861 44.72382467 35.94074861 45 34 C44.34 34 43.68 34 43 34 C43.33 32.68 43.66 31.36 44 30 C44 30.99 44 31.98 44 33 C44.66 33 45.32 33 46 33 C46.495 35.97 46.495 35.97 47 39 C48.485 39.495 48.485 39.495 50 40 C50 40.66 50 41.32 50 42 C50.66 42 51.32 42 52 42 C52 43.32 52 44.64 52 46 C51.34 46 50.68 46 50 46 C49.773125 46.598125 49.54625 47.19625 49.3125 47.8125 C48 50 48 50 45.5625 51.4375 C42.87280561 52.8034864 42.87280561 52.8034864 41.625 55.3125 C39.71640081 58.46902942 37.48247302 60.29351609 34.62109375 62.5703125 C32.74913641 64.09773544 32.74913641 64.09773544 31 67 C26.61366057 69.81441092 22.03567742 69.50994202 17 69 C12.19741311 67.31020091 9.95364704 65.07399591 7 61 C4.87600133 58.62112149 4.13402591 58.0446753 1 57 C1 56.34 1 55.68 1 55 C0.34 55 -0.32 55 -1 55 C-3.125 53.125 -3.125 53.125 -5 51 C-5 50.34 -5 49.68 -5 49 C-5.99 48.67 -6.98 48.34 -8 48 C-8 47.34 -8 46.68 -8 46 C-8.99 45.67 -9.98 45.34 -11 45 C-11 44.34 -11 43.68 -11 43 C-11.99 42.67 -12.98 42.34 -14 42 C-14 41.34 -14 40.68 -14 40 C-15.65 39.67 -17.3 39.34 -19 39 C-19 38.01 -19 37.02 -19 36 C-18.34 36 -17.68 36 -17 36 C-16.67 34.35 -16.34 32.7 -16 31 C-15.34 31 -14.68 31 -14 31 C-13.84144531 30.443125 -13.68289062 29.88625 -13.51953125 29.3125 C-11.99629543 24.33042483 -10.08803816 20.32195609 -7.20703125 15.99609375 C-5.28985768 12.82562225 -4.18793606 9.50128523 -3 6 C-2.34 6 -1.68 6 -1 6 C-1.020625 5.195625 -1.04125 4.39125 -1.0625 3.5625 C-1 1 -1 1 0 0 Z " fill="#A38930" transform="translate(23,33)"/>
<path d="M0 0 C3 1 3 1 4.90234375 4.31640625 C5.59091433 5.72684385 6.26888681 7.14249293 6.9375 8.5625 C7.27201172 9.25408203 7.60652344 9.94566406 7.95117188 10.65820312 C8.62929117 12.0601723 9.30391328 13.4638382 9.97509766 14.86914062 C12.15867137 19.40897659 14.43116285 23.90295692 16.75 28.375 C18 31 18 31 18 33 C18.66 33 19.32 33 20 33 C23 38.625 23 38.625 23 42 C22.01 42 21.02 42 20 42 C20 42.66 20 43.32 20 44 C18.35 43.34 16.7 42.68 15 42 C15.33 48.93 15.66 55.86 16 63 C14 63 14 63 12.5 62 C10.85839894 59.81119859 10.66317413 58.58493886 10.1875 55.9375 C9.80811096 53.82576481 9.80811096 53.82576481 9 52 C6.00571856 50.38852558 6.00571856 50.38852558 3 50 C3 48.68 3 47.36 3 46 C2.34 46 1.68 46 1 46 C1 49.3 1 52.6 1 56 C0.34 55.67 -0.32 55.34 -1 55 C-1 48.4 -1 41.8 -1 35 C-1.33 35.66 -1.66 36.32 -2 37 C-3.32 37 -4.64 37 -6 37 C-6 37.99 -6 38.98 -6 40 C-8.475 40.495 -8.475 40.495 -11 41 C-11.33 34.73 -11.66 28.46 -12 22 C-9.525 22.99 -9.525 22.99 -7 24 C-5.68 24 -4.36 24 -3 24 C-3 24.99 -3 25.98 -3 27 C-3.66 27 -4.32 27 -5 27 C-5 27.66 -5 28.32 -5 29 C-4.34 29 -3.68 29 -3 29 C-3 29.66 -3 30.32 -3 31 C-2.34 31 -1.68 31 -1 31 C-0.67 20.77 -0.34 10.54 0 0 Z " fill="#3B321E" transform="translate(37,9)"/>
<path d="M0 0 C0.66 0 1.32 0 2 0 C3.10514766 3.31544299 3.32107631 6.20410111 3.5625 9.6875 C3.68818359 11.45673828 3.68818359 11.45673828 3.81640625 13.26171875 C3.87699219 14.16535156 3.93757813 15.06898437 4 16 C5.32 16 6.64 16 8 16 C8 15.01 8 14.02 8 13 C9.32 13 10.64 13 12 13 C12.33 12.01 12.66 11.02 13 10 C13.33 10 13.66 10 14 10 C14 16.93 14 23.86 14 31 C13.01 30.67 12.02 30.34 11 30 C10.67 29.01 10.34 28.02 10 27 C9.01 26.67 8.02 26.34 7 26 C7 27.32 7 28.64 7 30 C6.34 30 5.68 30 5 30 C5 33.3 5 36.6 5 40 C0.74307029 38.93576757 -0.50657298 37.9202661 -3.625 35 C-6.58030757 32.16503895 -6.58030757 32.16503895 -10 30 C-10 29.34 -10 28.68 -10 28 C-10.66 28 -11.32 28 -12 28 C-8.43148336 31.68003279 -4.68500942 35.04249682 -0.76953125 38.3515625 C1 40 1 40 3 43 C3 43.99 3 44.98 3 46 C1.25 45.8125 1.25 45.8125 -1 45 C-1.598125 44.2471875 -2.19625 43.494375 -2.8125 42.71875 C-5.07436757 39.90757174 -7.40585784 37.89545247 -10.25 35.6875 C-11.14203125 34.99011719 -12.0340625 34.29273438 -12.953125 33.57421875 C-13.62859375 33.05472656 -14.3040625 32.53523438 -15 32 C-15 33.65 -15 35.3 -15 37 C-15.66 37 -16.32 37 -17 37 C-17 37.66 -17 38.32 -17 39 C-17.66 39 -18.32 39 -19 39 C-19 38.01 -19 37.02 -19 36 C-18.34 36 -17.68 36 -17 36 C-16.67 34.35 -16.34 32.7 -16 31 C-15.34 31 -14.68 31 -14 31 C-13.84144531 30.443125 -13.68289062 29.88625 -13.51953125 29.3125 C-11.99629543 24.33042483 -10.08803816 20.32195609 -7.20703125 15.99609375 C-5.28985768 12.82562225 -4.18793606 9.50128523 -3 6 C-2.34 6 -1.68 6 -1 6 C-1.020625 5.195625 -1.04125 4.39125 -1.0625 3.5625 C-1 1 -1 1 0 0 Z " fill="#D0B656" transform="translate(23,33)"/>
<path d="M0 0 C2.67710191 1.33855096 2.95129094 2.72058088 4.125 5.4375 C4.47820313 6.24058594 4.83140625 7.04367188 5.1953125 7.87109375 C6 10 6 10 6 12 C6.66 12 7.32 12 8 12 C11 17.625 11 17.625 11 21 C10.01 21 9.02 21 8 21 C8 21.66 8 22.32 8 23 C6.35 22.34 4.7 21.68 3 21 C3.33 27.93 3.66 34.86 4 42 C2 42 2 42 0.5 41 C-1.14160106 38.81119859 -1.33682587 37.58493886 -1.8125 34.9375 C-2.19188904 32.82576481 -2.19188904 32.82576481 -3 31 C-5.99428144 29.38852558 -5.99428144 29.38852558 -9 29 C-10.28571429 21.57142857 -10.28571429 21.57142857 -9 18 C-7.02 18.33 -5.04 18.66 -3 19 C-3 18.01 -3 17.02 -3 16 C-5.97 15.505 -5.97 15.505 -9 15 C-10.10844919 11.67465243 -9.84454356 9.37817425 -9 6 C-8.01 6 -7.02 6 -6 6 C-6 5.34 -6 4.68 -6 4 C-4.02 3.67 -2.04 3.34 0 3 C0 2.01 0 1.02 0 0 Z " fill="#C29F1B" transform="translate(49,30)"/>
<path d="M0 0 C0.99 0.33 1.98 0.66 3 1 C3 1.66 3 2.32 3 3 C3.66 3 4.32 3 5 3 C5 4.32 5 5.64 5 7 C4.34 7 3.68 7 3 7 C2.773125 7.598125 2.54625 8.19625 2.3125 8.8125 C1 11 1 11 -1.4375 12.4375 C-4.12719439 13.8034864 -4.12719439 13.8034864 -5.375 16.3125 C-7.28359919 19.46902942 -9.51752698 21.29351609 -12.37890625 23.5703125 C-14.25086359 25.09773544 -14.25086359 25.09773544 -16 28 C-19.00820553 29.93847727 -21.45280094 30.29627805 -25 30.3125 C-25.845625 30.32925781 -26.69125 30.34601563 -27.5625 30.36328125 C-30.45330535 29.93244007 -31.82826275 28.90529726 -34 27 C-31.69 27 -29.38 27 -27 27 C-27 26.34 -27 25.68 -27 25 C-25.37946188 23.61096733 -23.70294787 22.28667172 -22 21 C-19.31424949 18.91854335 -16.8759459 16.87284455 -14.5 14.4375 C-12.11327483 12.11044296 -9.86531606 10.6588672 -7 9 C-5.9805881 8.01979625 -4.97753644 7.02196992 -4 6 C-3.01 5.34 -2.02 4.68 -1 4 C-0.27617533 1.94074861 -0.27617533 1.94074861 0 0 Z " fill="#ACACAD" transform="translate(70,72)"/>
<path d="M0 0 C0.66 0 1.32 0 2 0 C2 13.53 2 27.06 2 41 C0.02 41.495 0.02 41.495 -2 42 C-3.09310596 43.87368225 -3.09310596 43.87368225 -4 46 C-5.50878906 47.65991211 -5.50878906 47.65991211 -7.265625 49.27734375 C-7.90886719 49.87353516 -8.55210938 50.46972656 -9.21484375 51.08398438 C-9.88644531 51.69564453 -10.55804688 52.30730469 -11.25 52.9375 C-11.90613281 53.54529297 -12.56226562 54.15308594 -13.23828125 54.77929688 C-15.14463655 56.53594833 -17.07035404 58.26901651 -19 60 C-19.55059082 60.5153833 -20.10118164 61.0307666 -20.66845703 61.56176758 C-24.4038811 64.93121705 -24.4038811 64.93121705 -27.3359375 65.26953125 C-29.22395833 64.84635417 -31.11197917 64.42317708 -33 64 C-33 63.34 -33 62.68 -33 62 C-32.43152344 61.87625 -31.86304688 61.7525 -31.27734375 61.625 C-24.37146813 59.78035876 -21.29841389 56.52335049 -17 51 C-16.48179688 50.484375 -15.96359375 49.96875 -15.4296875 49.4375 C-13.7636757 47.85507738 -13.7636757 47.85507738 -12 45 C-9.5 43.5 -9.5 43.5 -7 42 C-6.34 41.01 -5.68 40.02 -5 39 C-4.34 39 -3.68 39 -3 39 C-3 38.01 -3 37.02 -3 36 C-2.34 36 -1.68 36 -1 36 C-0.67 24.12 -0.34 12.24 0 0 Z " fill="#F3EFDA" transform="translate(78,40)"/>
<path d="M0 0 C2.475 0.99 2.475 0.99 5 2 C5 1.34 5 0.68 5 0 C6.8125 0.125 6.8125 0.125 9 1 C10.95320589 4.20883825 12 6.2205439 12 10 C12.66 10 13.32 10 14 10 C14 10.66 14 11.32 14 12 C12.35 12.33 10.7 12.66 9 13 C8.67 13.99 8.34 14.98 8 16 C7.34 16 6.68 16 6 16 C6 16.66 6 17.32 6 18 C5.01 18.33 4.02 18.66 3 19 C2.690625 19.639375 2.38125 20.27875 2.0625 20.9375 C0.72412624 23.53551965 -0.40786066 23.74096089 -3 25 C-3.845625 25.86625 -4.69125 26.7325 -5.5625 27.625 C-8 30 -8 30 -11 30 C-10.07038578 28.84775972 -9.1309875 27.70340824 -8.1875 26.5625 C-7.66542969 25.92441406 -7.14335938 25.28632812 -6.60546875 24.62890625 C-5 23 -5 23 -2 22 C-1.67 21.01 -1.34 20.02 -1 19 C-1 19.66 -1 20.32 -1 21 C-0.34 21 0.32 21 1 21 C0.67 20.01 0.34 19.02 0 18 C-0.08021999 16.59175107 -0.10765977 15.18002769 -0.09765625 13.76953125 C-0.09443359 12.96708984 -0.09121094 12.16464844 -0.08789062 11.33789062 C-0.07951172 10.50451172 -0.07113281 9.67113281 -0.0625 8.8125 C-0.05798828 7.96751953 -0.05347656 7.12253906 -0.04882812 6.25195312 C-0.03705403 4.16793845 -0.0191189 2.08396023 0 0 Z " fill="#483A1C" transform="translate(52,51)"/>
<path d="M0 0 C0.99 0 1.98 0 3 0 C3 0.66 3 1.32 3 2 C2.34 2 1.68 2 1 2 C1 12.56 1 23.12 1 34 C0.01 33.67 -0.98 33.34 -2 33 C-2 32.34 -2 31.68 -2 31 C-2.66 31 -3.32 31 -4 31 C-4 30.34 -4 29.68 -4 29 C-3.34 29 -2.68 29 -2 29 C-2.33 28.01 -2.66 27.02 -3 26 C-3.66 25.67 -4.32 25.34 -5 25 C-5.33 25.66 -5.66 26.32 -6 27 C-7.65 25.68 -9.3 24.36 -11 23 C-10.01 20.36 -9.02 17.72 -8 15 C-7.34 15 -6.68 15 -6 15 C-5.67 13.68 -5.34 12.36 -5 11 C-4.34 11 -3.68 11 -3 11 C-3 10.01 -3 9.02 -3 8 C-2.01 8 -1.02 8 0 8 C0 5.36 0 2.72 0 0 Z " fill="#BBB69B" transform="translate(36,7)"/>
<path d="M0 0 C6.15234375 0.5859375 6.15234375 0.5859375 8 1 C8.33 1.66 8.66 2.32 9 3 C9.33 2.34 9.66 1.68 10 1 C11.32 1 12.64 1 14 1 C14 1.66 14 2.32 14 3 C13.34 3 12.68 3 12 3 C12.33 9.93 12.66 16.86 13 24 C11 24 11 24 9.5 23 C7.85839894 20.81119859 7.66317413 19.58493886 7.1875 16.9375 C6.80811096 14.82576481 6.80811096 14.82576481 6 13 C3.00571856 11.38852558 3.00571856 11.38852558 0 11 C-1.28571429 3.57142857 -1.28571429 3.57142857 0 0 Z " fill="#C29D0E" transform="translate(40,48)"/>
<path d="M0 0 C0.33 0.99 0.66 1.98 1 3 C1.66 3 2.32 3 3 3 C4.19334591 6.58003773 4.33543224 9.24315896 4 13 C2.125 14.9375 2.125 14.9375 0 16 C-0.66 16 -1.32 16 -2 16 C-2.309375 16.86625 -2.309375 16.86625 -2.625 17.75 C-4.51625222 20.84477636 -6.90035937 22.1918763 -10 24 C-10.66 24 -11.32 24 -12 24 C-12.2475 24.598125 -12.495 25.19625 -12.75 25.8125 C-14.18072525 28.31626919 -15.5691582 29.48072388 -18 31 C-18.66 31 -19.32 31 -20 31 C-20.495 32.485 -20.495 32.485 -21 34 C-21.66 34 -22.32 34 -23 34 C-23 34.66 -23 35.32 -23 36 C-25.31 36 -27.62 36 -30 36 C-29 34 -29 34 -27.25 33.1875 C-24.75548577 32.01804548 -24.75548577 32.01804548 -22.4375 29.375 C-20 27 -20 27 -17 27 C-17 26.34 -17 25.68 -17 25 C-16.34 24.67 -15.68 24.34 -15 24 C-14.67 23.01 -14.34 22.02 -14 21 C-12.29296875 19.5703125 -12.29296875 19.5703125 -10.1875 18.125 C-6.84803465 15.72774095 -4.47817189 13.30422918 -2 10 C-1.01 9.34 -0.02 8.68 1 8 C1.72382467 5.94074861 1.72382467 5.94074861 2 4 C1.34 4 0.68 4 0 4 C0 2.68 0 1.36 0 0 Z " fill="#685C3B" transform="translate(66,63)"/>
<path d="M0 0 C0.144375 0.61875 0.28875 1.2375 0.4375 1.875 C0.93152225 4.03258322 0.93152225 4.03258322 2 6 C2.15688765 7.81001865 2.27592033 9.62339844 2.375 11.4375 C2.8269615 17.5649125 4.16924189 23.15078541 6 29 C3.525 28.01 3.525 28.01 1 27 C1 26.34 1 25.68 1 25 C0.01 24.67 -0.98 24.34 -2 24 C-2 23.34 -2 22.68 -2 22 C-2.61875 21.690625 -3.2375 21.38125 -3.875 21.0625 C-5.25 20.375 -6.625 19.6875 -8 19 C-7.54554036 17.58208592 -7.08625056 16.16571954 -6.625 14.75 C-6.24214844 13.56664062 -6.24214844 13.56664062 -5.8515625 12.359375 C-5.04826333 10.13372042 -4.10288338 8.09068328 -3 6 C-2.34 6 -1.68 6 -1 6 C-1.020625 5.195625 -1.04125 4.39125 -1.0625 3.5625 C-1 1 -1 1 0 0 Z " fill="#A29663" transform="translate(23,33)"/>
<path d="M0 0 C0.66 0 1.32 0 2 0 C1.67 1.65 1.34 3.3 1 5 C0.01 5.33 -0.98 5.66 -2 6 C-2.33 6.99 -2.66 7.98 -3 9 C-3.66 9 -4.32 9 -5 9 C-5.33 9.99 -5.66 10.98 -6 12 C-11.46511628 17 -11.46511628 17 -14 17 C-14.33 18.32 -14.66 19.64 -15 21 C-15.66 21 -16.32 21 -17 21 C-17 21.66 -17 22.32 -17 23 C-18.65848177 24.01351664 -20.32665961 25.01120795 -22 26 C-22.721875 26.721875 -23.44375 27.44375 -24.1875 28.1875 C-25.0846875 29.0846875 -25.0846875 29.0846875 -26 30 C-26.66 30 -27.32 30 -28 30 C-27.67 28.02 -27.34 26.04 -27 24 C-25.68 23.67 -24.36 23.34 -23 23 C-23 22.34 -23 21.68 -23 21 C-21.33784732 19.66104368 -19.67036393 18.32869858 -18 17 C-17.38640625 16.21625 -16.7728125 15.4325 -16.140625 14.625 C-13.9536332 11.94314145 -11.71329434 9.95087374 -9 7.8125 C-8.154375 7.13832031 -7.30875 6.46414062 -6.4375 5.76953125 C-4.33644569 4.24424663 -2.35865432 3.06467035 0 2 C0 1.34 0 0.68 0 0 Z " fill="#231B15" transform="translate(66,67)"/>
<path d="M0 0 C1.8125 0.125 1.8125 0.125 4 1 C5.75 4.0625 5.75 4.0625 7 7 C7.556875 6.71125 8.11375 6.4225 8.6875 6.125 C11.08494645 4.9586747 13.51596939 3.9660119 16 3 C14.7175023 5.86095641 13.54656011 8.11365918 11 10 C8.3125 10.1875 8.3125 10.1875 6 10 C6 10.99 6 11.98 6 13 C4.625 14.6875 4.625 14.6875 3 16 C2.34 16 1.68 16 1 16 C0.67 17.32 0.34 18.64 0 20 C-0.66 20 -1.32 20 -2 20 C-2 14.72 -2 9.44 -2 4 C-1.34 4 -0.68 4 0 4 C0 2.68 0 1.36 0 0 Z " fill="#1F1C13" transform="translate(30,59)"/>
<path d="M0 0 C2.475 0.99 2.475 0.99 5 2 C6.32 2 7.64 2 9 2 C9 2.99 9 3.98 9 5 C8.34 5 7.68 5 7 5 C7 5.66 7 6.32 7 7 C7.66 7 8.32 7 9 7 C9.625 9.3125 9.625 9.3125 10 12 C9.01 13.485 9.01 13.485 8 15 C7.34 15 6.68 15 6 15 C6 15.99 6 16.98 6 18 C4.35 18.33 2.7 18.66 1 19 C0.67 12.73 0.34 6.46 0 0 Z " fill="#0F0E0F" transform="translate(25,31)"/>
<path d="M0 0 C0.66 0 1.32 0 2 0 C2.375 2.1875 2.375 2.1875 2 5 C-0.75 7.5 -0.75 7.5 -2.421875 8.74609375 C-4.21748028 10.07220339 -4.21748028 10.07220339 -6 12.5625 C-8.35593159 15.43379162 -10.87875032 17.0024002 -14 19 C-15.09485881 19.90286935 -16.17845268 20.8195833 -17.25 21.75 C-20 24 -20 24 -22 24 C-22.99 26.475 -22.99 26.475 -24 29 C-27.3 28.67 -30.6 28.34 -34 28 C-34 27.67 -34 27.34 -34 27 C-31.69 27 -29.38 27 -27 27 C-27 26.34 -27 25.68 -27 25 C-25.37946188 23.61096733 -23.70294787 22.28667172 -22 21 C-19.31424949 18.91854335 -16.8759459 16.87284455 -14.5 14.4375 C-12.11327483 12.11044296 -9.86531606 10.6588672 -7 9 C-5.9805881 8.01979625 -4.97753644 7.02196992 -4 6 C-3.01 5.34 -2.02 4.68 -1 4 C-0.27617533 1.94074861 -0.27617533 1.94074861 0 0 Z " fill="#878783" transform="translate(70,72)"/>
<path d="M0 0 C2.94956528 1.36944102 5.52468811 2.87830409 8 5 C8 5.66 8 6.32 8 7 C8.66 7.33 9.32 7.66 10 8 C9.34 8 8.68 8 8 8 C8 8.66 8 9.32 8 10 C8.99 10.33 9.98 10.66 11 11 C11 11.66 11 12.32 11 13 C11.928125 13.433125 11.928125 13.433125 12.875 13.875 C15 15 15 15 17 17 C17 17.99 17 18.98 17 20 C17.99 20 18.98 20 20 20 C20 20.66 20 21.32 20 22 C16 22 16 22 14.25 20.625 C13 19 13 19 13 17 C12.01 16.67 11.02 16.34 10 16 C8.3125 14.5625 8.3125 14.5625 7 13 C7 12.34 7 11.68 7 11 C5.35 11 3.7 11 2 11 C1.67 10.01 1.34 9.02 1 8 C0.01 7.67 -0.98 7.34 -2 7 C-2 6.34 -2 5.68 -2 5 C-1.34 5 -0.68 5 0 5 C0 3.35 0 1.7 0 0 Z " fill="#B99E3F" transform="translate(8,65)"/>
<path d="M0 0 C0.99 0.33 1.98 0.66 3 1 C2.67 1.66 2.34 2.32 2 3 C1.84558791 5.10374996 1.75007361 7.21195119 1.68359375 9.3203125 C1.64169922 10.57714844 1.59980469 11.83398438 1.55664062 13.12890625 C1.51732422 14.44761719 1.47800781 15.76632813 1.4375 17.125 C1.39430488 18.46485751 1.35069027 19.80470156 1.30664062 21.14453125 C1.20029019 24.42957815 1.09826192 27.71470281 1 31 C1.66 31.33 2.32 31.66 3 32 C3 33.32 3 34.64 3 36 C4.98 36.33 6.96 36.66 9 37 C9 37.99 9 38.98 9 40 C7.02 39.67 5.04 39.34 3 39 C2.34 44.61 1.68 50.22 1 56 C0.34 55.67 -0.32 55.34 -1 55 C-1 48.4 -1 41.8 -1 35 C-1.33 35.66 -1.66 36.32 -2 37 C-2.66 36.67 -3.32 36.34 -4 36 C-3.34 34.35 -2.68 32.7 -2 31 C-1.67 31 -1.34 31 -1 31 C-0.67 20.77 -0.34 10.54 0 0 Z " fill="#60522E" transform="translate(37,9)"/>
<path d="M0 0 C0 0.99 0 1.98 0 3 C-2.046875 4.97265625 -2.046875 4.97265625 -4.75 7.0625 C-5.63171875 7.75472656 -6.5134375 8.44695312 -7.421875 9.16015625 C-10 11 -10 11 -12.265625 12.05859375 C-14.35920168 12.93940474 -14.35920168 12.93940474 -15 16 C-15.66 16 -16.32 16 -17 16 C-17.33 16.99 -17.66 17.98 -18 19 C-18.66 19 -19.32 19 -20 19 C-20.33 19.99 -20.66 20.98 -21 22 C-23.21701147 23.58965571 -25.57862473 24.72327486 -28 26 C-27.91563067 23.13144287 -27.41307819 21.44317685 -25.4453125 19.33203125 C-20.48559976 15 -20.48559976 15 -18 15 C-17.67 14.01 -17.34 13.02 -17 12 C-16.360625 11.690625 -15.72125 11.38125 -15.0625 11.0625 C-12.54531085 9.7657662 -12.03113052 8.5778263 -11 6 C-10.01 6 -9.02 6 -8 6 C-8 5.34 -8 4.68 -8 4 C-3.64705882 0 -3.64705882 0 0 0 Z " fill="#221A16" transform="translate(66,63)"/>
<path d="M0 0 C0.33 0 0.66 0 1 0 C1 6.93 1 13.86 1 21 C0.01 20.67 -0.98 20.34 -2 20 C-2.33 18.35 -2.66 16.7 -3 15 C-3.99 15 -4.98 15 -6 15 C-6 13.02 -6 11.04 -6 9 C-6.66 9 -7.32 9 -8 9 C-8 8.34 -8 7.68 -8 7 C-6.68 7 -5.36 7 -4 7 C-3.67 5.68 -3.34 4.36 -3 3 C-2.34 3 -1.68 3 -1 3 C-0.67 2.01 -0.34 1.02 0 0 Z " fill="#B4A877" transform="translate(36,43)"/>
<path d="M0 0 C2.34770643 3.52155964 2.37669614 5.50771843 2.625 9.6875 C2.69976562 10.86699219 2.77453125 12.04648437 2.8515625 13.26171875 C2.90054687 14.16535156 2.94953125 15.06898437 3 16 C4.32 16 5.64 16 7 16 C7 15.01 7 14.02 7 13 C7.66 13.33 8.32 13.66 9 14 C8.67 14.99 8.34 15.98 8 17 C6.68 17 5.36 17 4 17 C4 17.66 4 18.32 4 19 C4.66 19 5.32 19 6 19 C6 20.98 6 22.96 6 25 C6.99 25.33 7.98 25.66 9 26 C8.01 26 7.02 26 6 26 C6 27.32 6 28.64 6 30 C5.34 30 4.68 30 4 30 C3.67 30.66 3.34 31.32 3 32 C2.01 31.34 1.02 30.68 0 30 C0 29.34 0 28.68 0 28 C-0.99 27.67 -1.98 27.34 -3 27 C-3 26.34 -3 25.68 -3 25 C-3.99 24.67 -4.98 24.34 -6 24 C-6 23.34 -6 22.68 -6 22 C-6.99 21.67 -7.98 21.34 -9 21 C-9 20.34 -9 19.68 -9 19 C-4.24093902 21.11513821 -0.64657516 24.35342484 3 28 C3.66 28.33 4.32 28.66 5 29 C4.72285156 28.34515625 4.44570313 27.6903125 4.16015625 27.015625 C1.69720755 20.81004607 0.48660936 15.29838943 0.17578125 8.62890625 C0.08569323 6.04272595 0.08569323 6.04272595 -0.58203125 3.77734375 C-1 2 -1 2 0 0 Z " fill="#5B5341" transform="translate(24,33)"/>
<path d="M0 0 C0 0.99 0 1.98 0 3 C-2.30078125 5.2265625 -2.30078125 5.2265625 -5.3125 7.625 C-6.29863281 8.42164062 -7.28476562 9.21828125 -8.30078125 10.0390625 C-11 12 -11 12 -14 13 C-14.33 13.99 -14.66 14.98 -15 16 C-15.66 16 -16.32 16 -17 16 C-17.33 16.99 -17.66 17.98 -18 19 C-18.66 19 -19.32 19 -20 19 C-20.33 19.99 -20.66 20.98 -21 22 C-21.66 22 -22.32 22 -23 22 C-23 22.66 -23 23.32 -23 24 C-23.99 24.33 -24.98 24.66 -26 25 C-26.33 27.31 -26.66 29.62 -27 32 C-27.66 32 -28.32 32 -29 32 C-29 28.04 -29 24.08 -29 20 C-28.34 20.66 -27.68 21.32 -27 22 C-22.74911036 19.39149954 -20.06743746 16.8794062 -17 13 C-14.41041258 10.5754632 -11.70356792 8.29576717 -9 6 C-8.33871094 5.4121875 -7.67742188 4.824375 -6.99609375 4.21875 C-6.37863281 3.6721875 -5.76117188 3.125625 -5.125 2.5625 C-4.57070313 2.06878906 -4.01640625 1.57507813 -3.4453125 1.06640625 C-2 0 -2 0 0 0 Z " fill="#4D3F1B" transform="translate(66,66)"/>
<path d="M0 0 C0.66 0.33 1.32 0.66 2 1 C1.8863485 3.62594784 1.75960946 6.25011547 1.625 8.875 C1.57859375 9.99455078 1.57859375 9.99455078 1.53125 11.13671875 C1.2265625 16.7734375 1.2265625 16.7734375 -1 19 C-3.4375 17.8125 -3.4375 17.8125 -6 16 C-6.8125 13.3125 -6.8125 13.3125 -7 11 C-5.68 11.33 -4.36 11.66 -3 12 C-3 11.34 -3 10.68 -3 10 C-3.66 10 -4.32 10 -5 10 C-5 8.68 -5 7.36 -5 6 C-4.34 6 -3.68 6 -3 6 C-2.67 5.01 -2.34 4.02 -2 3 C-1.34 3 -0.68 3 0 3 C0 2.01 0 1.02 0 0 Z " fill="#A89042" transform="translate(36,69)"/>
<path d="M0 0 C0.66 0 1.32 0 2 0 C2 0.66 2 1.32 2 2 C2.57621094 2.25652344 3.15242187 2.51304688 3.74609375 2.77734375 C6.97490111 4.52884583 9.41150253 6.96148314 12.09765625 9.44140625 C14.01883893 11.2044029 14.01883893 11.2044029 17 12 C17 15.63 17 19.26 17 23 C12.41763487 20.70881743 8.37084563 17.90308442 5 14 C5 13.34 5 12.68 5 12 C5.99 12 6.98 12 8 12 C8 12.66 8 13.32 8 14 C8.99 14.33 9.98 14.66 11 15 C11 15.66 11 16.32 11 17 C12.32 17.33 13.64 17.66 15 18 C14.29231642 15.04199472 14.29231642 15.04199472 13 12 C11.68322983 11.30118776 10.34634282 10.6399869 9 10 C7.37945544 8.71215002 5.79710519 7.37520462 4.25 6 C3.45078125 5.29875 2.6515625 4.5975 1.828125 3.875 C0 2 0 2 0 0 Z " fill="#9F883E" transform="translate(11,61)"/>
<path d="M0 0 C0.66 1.32 1.32 2.64 2 4 C1.360625 4.2475 0.72125 4.495 0.0625 4.75 C-0.9584375 5.36875 -0.9584375 5.36875 -2 6 C-2.12375 6.598125 -2.2475 7.19625 -2.375 7.8125 C-3.61074314 12.13760097 -8.27346281 14.5517111 -11.9375 16.8125 C-14.78534109 18.8466722 -16.26691681 20.53004686 -18.375 23.25 C-21.35537812 26.85045679 -21.35537812 26.85045679 -24.22265625 27.515625 C-26.4375 27.5 -26.4375 27.5 -30 27 C-30 26.67 -30 26.34 -30 26 C-29.43152344 25.87625 -28.86304688 25.7525 -28.27734375 25.625 C-21.37146813 23.78035876 -18.29841389 20.52335049 -14 15 C-13.48179688 14.484375 -12.96359375 13.96875 -12.4296875 13.4375 C-10.7636757 11.85507738 -10.7636757 11.85507738 -9 9 C-6.5 7.5 -6.5 7.5 -4 6 C-3.34 5.01 -2.68 4.02 -2 3 C-1.34 3 -0.68 3 0 3 C0 2.01 0 1.02 0 0 Z " fill="#DADADA" transform="translate(75,76)"/>
<path d="M0 0 C0.99 0 1.98 0 3 0 C3 0.66 3 1.32 3 2 C2.34 2 1.68 2 1 2 C1 8.27 1 14.54 1 21 C-2.04951395 19.47524303 -4.36399506 18.07114674 -7 16 C-6.67 17.32 -6.34 18.64 -6 20 C-6.99 19.67 -7.98 19.34 -9 19 C-8.67 17.68 -8.34 16.36 -8 15 C-7.34 15 -6.68 15 -6 15 C-5.67 13.68 -5.34 12.36 -5 11 C-4.34 11 -3.68 11 -3 11 C-3 10.01 -3 9.02 -3 8 C-2.01 8 -1.02 8 0 8 C0 5.36 0 2.72 0 0 Z " fill="#C8C4BB" transform="translate(36,7)"/>
<path d="M0 0 C0.495 1.485 0.495 1.485 1 3 C-4.24981276 9.07405873 -9.65445993 14.74762856 -15.72265625 20.01171875 C-17.94720347 21.90407011 -17.94720347 21.90407011 -19.68359375 23.70703125 C-21.71385255 25.70427771 -23.23630512 26.97352153 -26.140625 27.07421875 C-28.375 26.8125 -28.375 26.8125 -32 26 C-32 25.67 -32 25.34 -32 25 C-30.865625 25.04125 -29.73125 25.0825 -28.5625 25.125 C-22.97760833 24.47490679 -20.63652931 20.63231852 -17.2421875 16.50390625 C-14.64036202 13.59838337 -12.01064324 11.9652128 -8.6484375 10.078125 C-6.26090453 8.51661055 -5.28285804 6.50157318 -4 4 C-2.70420353 2.63015802 -1.38007251 1.2848951 0 0 Z " fill="#EDEDED" transform="translate(77,78)"/>
<path d="M0 0 C0.66 0 1.32 0 2 0 C2.33 0.66 2.66 1.32 3 2 C3.33 1.34 3.66 0.68 4 0 C5.32 0 6.64 0 8 0 C8 0.66 8 1.32 8 2 C7.34 2 6.68 2 6 2 C6.33 8.93 6.66 15.86 7 23 C5 23 5 23 3.4375 21.9375 C1.35943153 19.13662511 1.32189473 16.41208416 1 13 C1.99 12.34 2.98 11.68 4 11 C4.25030977 8.41619823 4.25030977 8.41619823 4 6 C3.01 5.67 2.02 5.34 1 5 C0.67 3.35 0.34 1.7 0 0 Z " fill="#B99411" transform="translate(46,49)"/>
<path d="M0 0 C0.99 0 1.98 0 3 0 C3 0.66 3 1.32 3 2 C3.99 2.33 4.98 2.66 6 3 C7.6875 4.4375 7.6875 4.4375 9 6 C9 6.66 9 7.32 9 8 C9.99 8.33 10.98 8.66 12 9 C12 9.66 12 10.32 12 11 C13.32 11 14.64 11 16 11 C16.33 12.32 16.66 13.64 17 15 C17.66 15 18.32 15 19 15 C19 15.66 19 16.32 19 17 C19.99 17.33 20.98 17.66 22 18 C23.1875 20.5625 23.1875 20.5625 24 23 C23.34 23 22.68 23 22 23 C20.62926214 21.36395804 19.29944744 19.69321939 18 18 C15.87600133 15.62112149 15.13402591 15.0446753 12 14 C12 13.34 12 12.68 12 12 C11.34 12 10.68 12 10 12 C7.875 10.125 7.875 10.125 6 8 C6 7.34 6 6.68 6 6 C5.01 5.67 4.02 5.34 3 5 C3 4.34 3 3.68 3 3 C2.01 2.67 1.02 2.34 0 2 C0 1.34 0 0.68 0 0 Z " fill="#A4935E" transform="translate(12,76)"/>
<path d="M0 0 C0.99 0 1.98 0 3 0 C3 1.32 3 2.64 3 4 C3.66 4 4.32 4 5 4 C5 4.66 5 5.32 5 6 C4.01 6.495 4.01 6.495 3 7 C2.566875 7.9590625 2.566875 7.9590625 2.125 8.9375 C0.72604097 11.50225823 -0.40757055 11.74081998 -3 13 C-3.845625 13.86625 -4.69125 14.7325 -5.5625 15.625 C-8 18 -8 18 -11 18 C-10.07038578 16.84775972 -9.1309875 15.70340824 -8.1875 14.5625 C-7.66542969 13.92441406 -7.14335938 13.28632812 -6.60546875 12.62890625 C-5 11 -5 11 -2 10 C-1.67 9.01 -1.34 8.02 -1 7 C-1 7.66 -1 8.32 -1 9 C-0.34 9 0.32 9 1 9 C0.67 6.03 0.34 3.06 0 0 Z " fill="#4B4119" transform="translate(52,63)"/>
<path d="M0 0 C0.66 0 1.32 0 2 0 C2 1.32 2 2.64 2 4 C2.763125 3.9175 3.52625 3.835 4.3125 3.75 C7 4 7 4 8.8125 5.875 C10 8 10 8 10 10 C9.34 10 8.68 10 8 10 C8 9.01 8 8.02 8 7 C7.52949219 7.37253906 7.05898438 7.74507812 6.57421875 8.12890625 C5.95160156 8.60199219 5.32898437 9.07507813 4.6875 9.5625 C4.07261719 10.03816406 3.45773438 10.51382813 2.82421875 11.00390625 C2.22222656 11.33261719 1.62023438 11.66132812 1 12 C0.01 11.67 -0.98 11.34 -2 11 C-1.34 10.67 -0.68 10.34 0 10 C0 6.7 0 3.4 0 0 Z " fill="#54441A" transform="translate(38,55)"/>
<path d="M0 0 C0.66 0 1.32 0 2 0 C2.375 2.1875 2.375 2.1875 2 5 C-0.75 7.5 -0.75 7.5 -2.421875 8.74609375 C-4.21748028 10.07220339 -4.21748028 10.07220339 -6 12.5625 C-8.35593159 15.43379162 -10.87875032 17.0024002 -14 19 C-16.04618962 20.61834998 -18.01859647 22.30165412 -20 24 C-20.33 23.34 -20.66 22.68 -21 22 C-19.41728767 20.72839334 -17.83380365 19.45774715 -16.25 18.1875 C-15.36828125 17.47980469 -14.4865625 16.77210937 -13.578125 16.04296875 C-11.98162301 14.77786187 -10.35906469 13.54405451 -8.69921875 12.36328125 C-6.81144417 11.14116835 -6.81144417 11.14116835 -6.5625 9 C-5.72533985 6.02343058 -3.57269964 5.54361978 -1 4 C-0.12177688 1.91466367 -0.12177688 1.91466367 0 0 Z " fill="#989894" transform="translate(70,72)"/>
<path d="M0 0 C0.99 0.33 1.98 0.66 3 1 C2.67 1.66 2.34 2.32 2 3 C1.84558791 5.10374996 1.75007361 7.21195119 1.68359375 9.3203125 C1.64169922 10.57714844 1.59980469 11.83398438 1.55664062 13.12890625 C1.51732422 14.44761719 1.47800781 15.76632813 1.4375 17.125 C1.39430488 18.46485751 1.35069027 19.80470156 1.30664062 21.14453125 C1.20029019 24.42957815 1.09826192 27.71470281 1 31 C1.66 31.33 2.32 31.66 3 32 C2.67 32.66 2.34 33.32 2 34 C0.515 34.495 0.515 34.495 -1 35 C-1.33 35.66 -1.66 36.32 -2 37 C-2.66 36.67 -3.32 36.34 -4 36 C-3.34 34.35 -2.68 32.7 -2 31 C-1.67 31 -1.34 31 -1 31 C-0.67 20.77 -0.34 10.54 0 0 Z " fill="#736A58" transform="translate(37,9)"/>
<path d="M0 0 C8.69830028 7.33002833 8.69830028 7.33002833 11 10 C11 10.99 11 11.98 11 13 C7.97484531 12.67587628 7.08758661 12.10171348 5.0625 9.75 C4.381875 8.8425 3.70125 7.935 3 7 C1.35216394 5.31471312 -0.31002677 3.64302953 -2 2 C-1.34 2 -0.68 2 0 2 C0 1.34 0 0.68 0 0 Z " fill="#CDB14B" transform="translate(15,66)"/>
<path d="M0 0 C0.66 0 1.32 0 2 0 C1.1875 2.4375 1.1875 2.4375 0 5 C-0.99 5.33 -1.98 5.66 -3 6 C-3.33 6.99 -3.66 7.98 -4 9 C-4.66 9 -5.32 9 -6 9 C-6 9.66 -6 10.32 -6 11 C-8.31 11 -10.62 11 -13 11 C-12 9 -12 9 -10.25 8.1875 C-7.75548577 7.01804548 -7.75548577 7.01804548 -5.4375 4.375 C-3 2 -3 2 0 2 C0 1.34 0 0.68 0 0 Z " fill="#6E6444" transform="translate(49,88)"/>
<path d="M0 0 C0.99 0 1.98 0 3 0 C1.4972742 4.20763224 -1.23332995 5.8027758 -5 8 C-5.66 8 -6.32 8 -7 8 C-7.268125 8.61875 -7.53625 9.2375 -7.8125 9.875 C-9 12 -9 12 -12 14 C-9.40097367 6.02965258 -9.40097367 6.02965258 -5.5625 3.875 C-4.94503906 3.52179688 -4.32757813 3.16859375 -3.69140625 2.8046875 C-2 2 -2 2 0 2 C0 1.34 0 0.68 0 0 Z " fill="#737064" transform="translate(61,79)"/>
<path d="M0 0 C0 3 0 3 -1.609375 4.75390625 C-2.31578125 5.35074219 -3.0221875 5.94757813 -3.75 6.5625 C-4.79414062 7.46162109 -4.79414062 7.46162109 -5.859375 8.37890625 C-7.84477963 9.88245173 -9.7375439 10.97578001 -12 12 C-11.43573848 8.20405883 -9.81748138 6.41289367 -7.125 3.75 C-6.07699219 2.69039063 -6.07699219 2.69039063 -5.0078125 1.609375 C-3 0 -3 0 0 0 Z " fill="#271D16" transform="translate(50,70)"/>
<path d="M0 0 C4.15933167 3.39990314 7.68848842 6.74234226 11 11 C11.99 11.66 12.98 12.32 14 13 C13.67 14.32 13.34 15.64 13 17 C13 16.34 13 15.68 13 15 C12.01 14.67 11.02 14.34 10 14 C10 13.34 10 12.68 10 12 C9.01 11.67 8.02 11.34 7 11 C7 10.34 7 9.68 7 9 C6.38125 8.7525 5.7625 8.505 5.125 8.25 C2.62181694 6.77753937 2.16954719 5.58971163 1 3 C0.34 2.67 -0.32 2.34 -1 2 C-0.67 1.34 -0.34 0.68 0 0 Z " fill="#D0BB68" transform="translate(14,52)"/>
<path d="M0 0 C3.60349428 2.77983844 6.82496409 5.74141051 10 9 C10.598125 9.556875 11.19625 10.11375 11.8125 10.6875 C13 12 13 12 13 14 C10.525 13.01 10.525 13.01 8 12 C8 11.34 8 10.68 8 10 C7.01 9.67 6.02 9.34 5 9 C5 8.34 5 7.68 5 7 C4.38125 6.690625 3.7625 6.38125 3.125 6.0625 C1.75 5.375 0.375 4.6875 -1 4 C-0.67 2.68 -0.34 1.36 0 0 Z " fill="#D7C47B" transform="translate(16,48)"/>
<path d="M0 0 C0.66 0 1.32 0 2 0 C3.33895632 1.66215268 4.67130142 3.32963607 6 5 C7.2375 5.99 7.2375 5.99 8.5 7 C11.11780044 9.09424035 12.99454789 11.32606386 15 14 C14.67 14.66 14.34 15.32 14 16 C11.95880212 14.38405168 9.95927063 12.7143618 8 11 C8 10.34 8 9.68 8 9 C7.01 8.67 6.02 8.34 5 8 C5 7.34 5 6.68 5 6 C4.01 5.67 3.02 5.34 2 5 C2 4.34 2 3.68 2 3 C1.34 3 0.68 3 0 3 C0 2.01 0 1.02 0 0 Z " fill="#9E8947" transform="translate(13,55)"/>
<path d="M0 0 C4.75906098 2.11513821 8.35342484 5.35342484 12 9 C12.66 9.33 13.32 9.66 14 10 C14.33 9.34 14.66 8.68 15 8 C15 8.99 15 9.98 15 11 C14.34 11 13.68 11 13 11 C12.67 11.66 12.34 12.32 12 13 C11.01 12.34 10.02 11.68 9 11 C9 10.34 9 9.68 9 9 C8.01 8.67 7.02 8.34 6 8 C6 7.34 6 6.68 6 6 C5.01 5.67 4.02 5.34 3 5 C3 4.34 3 3.68 3 3 C2.01 2.67 1.02 2.34 0 2 C0 1.34 0 0.68 0 0 Z " fill="#A08B4D" transform="translate(15,52)"/>
<path d="M0 0 C0.99 0 1.98 0 3 0 C3 0.66 3 1.32 3 2 C3.99 2.33 4.98 2.66 6 3 C6 3.66 6 4.32 6 5 C8.475 5.99 8.475 5.99 11 7 C11 5.35 11 3.7 11 2 C11.33 2 11.66 2 12 2 C12 4.97 12 7.94 12 11 C7.41763487 8.70881743 3.37084563 5.90308442 0 2 C0 1.34 0 0.68 0 0 Z " fill="#86702E" transform="translate(16,73)"/>
<path d="M0 0 C0.66 0.33 1.32 0.66 2 1 C1.29875 1.680625 0.5975 2.36125 -0.125 3.0625 C-2.78262379 5.69753775 -5.13532371 8.52917172 -7.47265625 11.44921875 C-9.21747921 13.22081648 -10.66465152 14.14871313 -13 15 C-13.99 14.67 -14.98 14.34 -16 14 C-15.32453125 13.48050781 -14.6490625 12.96101563 -13.953125 12.42578125 C-13.06109375 11.72839844 -12.1690625 11.03101562 -11.25 10.3125 C-10.36828125 9.62800781 -9.4865625 8.94351563 -8.578125 8.23828125 C-6.01758426 6.01526633 -4.08521596 3.66091688 -2 1 C-1.34 0.67 -0.68 0.34 0 0 Z " fill="#C3C3C2" transform="translate(63,87)"/>
<path d="M0 0 C0.66 0 1.32 0 2 0 C2.33 0.66 2.66 1.32 3 2 C3.33 1.34 3.66 0.68 4 0 C5.32 0 6.64 0 8 0 C8 0.66 8 1.32 8 2 C7.34 2 6.68 2 6 2 C6 5.96 6 9.92 6 14 C5.67 14 5.34 14 5 14 C4.67 11.36 4.34 8.72 4 6 C3.01 5.67 2.02 5.34 1 5 C0.67 3.35 0.34 1.7 0 0 Z " fill="#A98613" transform="translate(46,49)"/>
<path d="M0 0 C3.26954202 0.56371414 4.82575883 1.49962266 7 4 C7.33 3.34 7.66 2.68 8 2 C10.1519437 5.22791555 10.20086443 6.28400809 10 10 C7.96166576 8.7260411 5.96147874 7.38938077 4 6 C4 5.34 4 4.68 4 4 C2.68 3.34 1.36 2.68 0 2 C0 1.34 0 0.68 0 0 Z " fill="#A4935C" transform="translate(17,48)"/>
<path d="M0 0 C0.66 1.32 1.32 2.64 2 4 C0.02 4.99 0.02 4.99 -2 6 C-2 6.66 -2 7.32 -2 8 C-3.96875 9.5078125 -3.96875 9.5078125 -6.5 11.125 C-7.3353125 11.66382812 -8.170625 12.20265625 -9.03125 12.7578125 C-9.6809375 13.16773437 -10.330625 13.57765625 -11 14 C-9.42626039 9.52649945 -8.15366999 8.28451849 -4 6 C-3.34 5.01 -2.68 4.02 -2 3 C-1.34 3 -0.68 3 0 3 C0 2.01 0 1.02 0 0 Z " fill="#D0D1D0" transform="translate(75,76)"/>
<path d="M0 0 C4.875 2.625 4.875 2.625 6 6 C3.03824877 5.38722388 1.61941217 4.74627478 -1 3 C-1 4.65 -1 6.3 -1 8 C-1.66 8 -2.32 8 -3 8 C-3 8.66 -3 9.32 -3 10 C-3.66 10 -4.32 10 -5 10 C-5 9.01 -5 8.02 -5 7 C-4.34 7 -3.68 7 -3 7 C-2.67 5.35 -2.34 3.7 -2 2 C-1.34 2 -0.68 2 0 2 C0 1.34 0 0.68 0 0 Z " fill="#D0BC6B" transform="translate(9,62)"/>
<path d="M0 0 C2.67438936 2.38335287 4.15158012 4.87036148 5.75 8.0625 C6.19859375 8.94035156 6.6471875 9.81820313 7.109375 10.72265625 C7.40328125 11.47417969 7.6971875 12.22570313 8 13 C7.67 13.66 7.34 14.32 7 15 C5.68 14.67 4.36 14.34 3 14 C3.33 12.35 3.66 10.7 4 9 C3.34 9 2.68 9 2 9 C2 7.35 2 5.7 2 4 C1.34 4 0.68 4 0 4 C0 2.68 0 1.36 0 0 Z " fill="#615A45" transform="translate(40,13)"/>
<path d="M0 0 C0.66 0 1.32 0 2 0 C2.33 1.32 2.66 2.64 3 4 C3.66 4 4.32 4 5 4 C5 4.66 5 5.32 5 6 C5.99 6.33 6.98 6.66 8 7 C9.1875 9.5625 9.1875 9.5625 10 12 C9.34 12 8.68 12 8 12 C6.66104368 10.33784732 5.32869858 8.67036393 4 7 C2.36643049 5.62631655 0.7074998 4.28062485 -1 3 C-0.67 2.01 -0.34 1.02 0 0 Z " fill="#A3904F" transform="translate(26,87)"/>
<path d="M0 0 C1.32 0.33 2.64 0.66 4 1 C4 1.99 4 2.98 4 4 C4.99 4 5.98 4 7 4 C7 5.98 7 7.96 7 10 C6.01 9.67 5.02 9.34 4 9 C3.67 7.35 3.34 5.7 3 4 C2.01 4 1.02 4 0 4 C0 2.68 0 1.36 0 0 Z " fill="#A49460" transform="translate(30,54)"/>
<path d="M0 0 C1.875 0.125 1.875 0.125 4 1 C5.25 4.0625 5.25 4.0625 6 7 C4.35 7.66 2.7 8.32 1 9 C1.33 7.35 1.66 5.7 2 4 C0.68 3.67 -0.64 3.34 -2 3 C-1.34 2.67 -0.68 2.34 0 2 C0 1.34 0 0.68 0 0 Z " fill="#645722" transform="translate(57,51)"/>
<path d="M0 0 C0.33 0.99 0.66 1.98 1 3 C1.825 3.309375 2.65 3.61875 3.5 3.9375 C4.325 4.288125 5.15 4.63875 6 5 C6.8125 7.125 6.8125 7.125 7 9 C4.04590299 7.62845496 1.55991624 6.01136276 -1 4 C-0.67 5.32 -0.34 6.64 0 8 C-0.99 7.67 -1.98 7.34 -3 7 C-2.67 5.68 -2.34 4.36 -2 3 C-1.34 3 -0.68 3 0 3 C0 2.01 0 1.02 0 0 Z " fill="#E5E2CF" transform="translate(30,19)"/>
<path d="M0 0 C2.86724686 0.57344937 3.8614515 0.8614515 6 3 C6 3.99 6 4.98 6 6 C6.99 6 7.98 6 9 6 C9 6.66 9 7.32 9 8 C5 8 5 8 3.25 6.625 C2 5 2 5 2 3 C1.34 3 0.68 3 0 3 C0 2.01 0 1.02 0 0 Z " fill="#CCAB32" transform="translate(19,79)"/>
<path d="M0 0 C3.39914975 1.13304992 4.05254451 2.12518475 6 5 C4.71034824 6.37562854 3.37310707 7.70766393 2 9 C1.34 9 0.68 9 0 9 C0 6.03 0 3.06 0 0 Z " fill="#4B3C1B" transform="translate(52,51)"/>
<path d="M0 0 C2.95290136 1.37098992 5.60419752 2.77532627 8 5 C8 6.32 8 7.64 8 9 C6 9 6 9 4.375 7.625 C3 6 3 6 3 4 C2.34 4 1.68 4 1 4 C0.67 2.68 0.34 1.36 0 0 Z " fill="#CAA92C" transform="translate(28,87)"/>
<path d="M0 0 C0.99 0 1.98 0 3 0 C3 1.32 3 2.64 3 4 C3.66 4 4.32 4 5 4 C5 4.66 5 5.32 5 6 C4.01 6.495 4.01 6.495 3 7 C2.67 7.99 2.34 8.98 2 10 C1.01 9.67 0.02 9.34 -1 9 C-0.34 9 0.32 9 1 9 C0.67 6.03 0.34 3.06 0 0 Z " fill="#7C6417" transform="translate(52,63)"/>
<path d="M0 0 C0.33 0.66 0.66 1.32 1 2 C4.02934491 2.65772428 4.02934491 2.65772428 7 3 C7 3.99 7 4.98 7 6 C4.03 5.505 4.03 5.505 1 5 C0.67 6.32 0.34 7.64 0 9 C0 6.03 0 3.06 0 0 Z " fill="#7D6313" transform="translate(39,43)"/>
<path d="M0 0 C0.77321882 2.98241547 1.41196203 5.97580475 2 9 C1.67 8.34 1.34 7.68 1 7 C0.01 7 -0.98 7 -2 7 C-1.505 7.433125 -1.01 7.86625 -0.5 8.3125 C1 10 1 10 1 13 C0.01 12.67 -0.98 12.34 -2 12 C-2 11.34 -2 10.68 -2 10 C-2.66 9.67 -3.32 9.34 -4 9 C-3.67 8.01 -3.34 7.02 -3 6 C-2.34 6 -1.68 6 -1 6 C-1.020625 5.195625 -1.04125 4.39125 -1.0625 3.5625 C-1 1 -1 1 0 0 Z " fill="#DAD0A5" transform="translate(23,33)"/>
<path d="M0 0 C-0.33 0.99 -0.66 1.98 -1 3 C-1.66 3 -2.32 3 -3 3 C-3 3.66 -3 4.32 -3 5 C-6.75 6.125 -6.75 6.125 -9 5 C-9 3 -9 3 -7.875 1.375 C-5.24112056 -0.55651159 -3.18083044 -0.21205536 0 0 Z " fill="#2D2515" transform="translate(52,85)"/>
<path d="M0 0 C2.88437779 1.29299694 4.87219421 2.65941363 7 5 C6.67 5.99 6.34 6.98 6 8 C3.5625 6.8125 3.5625 6.8125 1 5 C0.1875 2.3125 0.1875 2.3125 0 0 Z " fill="#CEB041" transform="translate(29,80)"/>
<path d="M0 0 C0.33 0.99 0.66 1.98 1 3 C-0.1196986 4.00593243 -1.2459412 5.0045849 -2.375 6 C-3.00148438 6.556875 -3.62796875 7.11375 -4.2734375 7.6875 C-6 9 -6 9 -8 9 C-6.4169423 4.7257442 -3.49431596 2.73468206 0 0 Z " fill="#251C14" transform="translate(46,66)"/>
<path d="M0 0 C-1.2824977 2.86095641 -2.45343989 5.11365918 -5 7 C-7.6875 7.1875 -7.6875 7.1875 -10 7 C-3.18421053 0 -3.18421053 0 0 0 Z " fill="#2A2017" transform="translate(46,62)"/>
<path d="M0 0 C0.33 0 0.66 0 1 0 C1.25 3.3125 1.25 3.3125 1 7 C-0.875 8.9375 -0.875 8.9375 -3 10 C-3.66 10 -4.32 10 -5 10 C-4.42437172 6.66135596 -3.40936384 5.30897368 -1 3 C-0.67 2.01 -0.34 1.02 0 0 Z " fill="#7B746C" transform="translate(69,69)"/>
<path d="M0 0 C1.17487036 0.75827092 2.33972592 1.53207755 3.5 2.3125 C4.47453125 2.95638672 4.47453125 2.95638672 5.46875 3.61328125 C5.9740625 4.07089844 6.479375 4.52851562 7 5 C7 5.99 7 6.98 7 8 C3.76912579 7.44295272 1.97638863 6.66812465 0 4 C0 2.68 0 1.36 0 0 Z " fill="#CDAE39" transform="translate(8,67)"/>
<path d="M0 0 C2.475 0.495 2.475 0.495 5 1 C5 1.66 5 2.32 5 3 C5.99 3.33 6.98 3.66 8 4 C8 4.99 8 5.98 8 7 C7.01 7 6.02 7 5 7 C5 6.01 5 5.02 5 4 C4.360625 3.896875 3.72125 3.79375 3.0625 3.6875 C2.381875 3.460625 1.70125 3.23375 1 3 C0.67 2.01 0.34 1.02 0 0 Z " fill="#D8C486" transform="translate(29,51)"/>
<path d="M0 0 C0.66 0 1.32 0 2 0 C2.33 0.99 2.66 1.98 3 3 C2.34 3 1.68 3 1 3 C1 3.66 1 4.32 1 5 C0.01 5 -0.98 5 -2 5 C-2 6.32 -2 7.64 -2 9 C-2.66 9 -3.32 9 -4 9 C-4 7.35 -4 5.7 -4 4 C-2.68 3.34 -1.36 2.68 0 2 C0 1.34 0 0.68 0 0 Z " fill="#655119" transform="translate(42,31)"/>
<path d="M0 0 C0.99 0 1.98 0 3 0 C2.34 1.98 1.68 3.96 1 6 C2.32 5.67 3.64 5.34 5 5 C4 8 4 8 0 10 C0 6.7 0 3.4 0 0 Z " fill="#57481F" transform="translate(37,76)"/>
<path d="M0 0 C2.94956528 1.36944102 5.52468811 2.87830409 8 5 C8 5.66 8 6.32 8 7 C8.66 7.33 9.32 7.66 10 8 C5.17965738 7.58682778 3.09007389 5.61980085 0 2 C0 1.34 0 0.68 0 0 Z " fill="#9F863A" transform="translate(8,65)"/>
<path d="M0 0 C0.33 0.99 0.66 1.98 1 3 C-0.28965176 4.37562854 -1.62689293 5.70766393 -3 7 C-3.66 7 -4.32 7 -5 7 C-5 7.66 -5 8.32 -5 9 C-5.66 9 -6.32 9 -7 9 C-7 8.01 -7 7.02 -7 6 C-6.34 6 -5.68 6 -5 6 C-4.67 5.01 -4.34 4.02 -4 3 C-1.9375 1.3125 -1.9375 1.3125 0 0 Z " fill="#281F11" transform="translate(59,54)"/>
<path d="M0 0 C0.99 0.33 1.98 0.66 3 1 C3 2.65 3 4.3 3 6 C1.35 6 -0.3 6 -2 6 C-2.33 5.01 -2.66 4.02 -3 3 C-2.34 3 -1.68 3 -1 3 C-0.67 2.01 -0.34 1.02 0 0 Z " fill="#493D1F" transform="translate(46,27)"/>
<path d="M0 0 C0.66 0 1.32 0 2 0 C2.3125 2.25 2.3125 2.25 2 5 C-0.3125 7.3125 -0.3125 7.3125 -3 9 C-3.99 9 -4.98 9 -6 9 C-6 8.34 -6 7.68 -6 7 C-5.195625 6.54625 -4.39125 6.0925 -3.5625 5.625 C-0.84763807 4.26579005 -0.84763807 4.26579005 -0.1875 1.8125 C-0.125625 1.214375 -0.06375 0.61625 0 0 Z " fill="#8F8F8E" transform="translate(70,72)"/>
<path d="M0 0 C0.66 0 1.32 0 2 0 C2 1.98 2 3.96 2 6 C2.99 6.33 3.98 6.66 5 7 C3.35 7.33 1.7 7.66 0 8 C-1.125 2.25 -1.125 2.25 0 0 Z " fill="#706540" transform="translate(28,52)"/>
<path d="M0 0 C0.33 1.32 0.66 2.64 1 4 C0.34 4 -0.32 4 -1 4 C-1.2475 4.61875 -1.495 5.2375 -1.75 5.875 C-3.20628639 8.35068687 -4.37812506 8.95125002 -7 10 C-5.15083921 5.93184627 -3.33557632 2.9905167 0 0 Z " fill="#BFBCBF" transform="translate(74,75)"/>
<path d="M0 0 C0.33 0.99 0.66 1.98 1 3 C1.66 3 2.32 3 3 3 C3 3.66 3 4.32 3 5 C1.35 5.33 -0.3 5.66 -2 6 C-2 6.66 -2 7.32 -2 8 C-2.99 8 -3.98 8 -5 8 C-5 6 -5 6 -3.625 4.375 C-2 3 -2 3 0 3 C0 2.01 0 1.02 0 0 Z " fill="#504727" transform="translate(63,58)"/>
<path d="M0 0 C0 0.99 0 1.98 0 3 C-0.66 3 -1.32 3 -2 3 C-2.33 3.99 -2.66 4.98 -3 6 C-5.0625 6.6875 -5.0625 6.6875 -7 7 C-3.86206897 0 -3.86206897 0 0 0 Z " fill="#221A12" transform="translate(63,58)"/>
<path d="M0 0 C0.33 0.99 0.66 1.98 1 3 C1.66 3 2.32 3 3 3 C3.33 3.99 3.66 4.98 4 6 C3.67 6.66 3.34 7.32 3 8 C2.34 8 1.68 8 1 8 C1 7.34 1 6.68 1 6 C0.34 6 -0.32 6 -1 6 C-1.33 6.66 -1.66 7.32 -2 8 C-1.33333333 5.33333333 -0.66666667 2.66666667 0 0 Z " fill="#C4B063" transform="translate(12,55)"/>
<path d="M0 0 C0.99 0.33 1.98 0.66 3 1 C3 2.98 3 4.96 3 7 C2.01 6.67 1.02 6.34 0 6 C0 5.34 0 4.68 0 4 C-0.66 4 -1.32 4 -2 4 C-2 3.34 -2 2.68 -2 2 C-1.34 2 -0.68 2 0 2 C0 1.34 0 0.68 0 0 Z " fill="#A6A080" transform="translate(34,34)"/>
<path d="M0 0 C2.4375 0.6875 2.4375 0.6875 5 2 C5.8125 4.625 5.8125 4.625 6 7 C4.68 6.34 3.36 5.68 2 5 C2 4.34 2 3.68 2 3 C1.34 3 0.68 3 0 3 C0 2.01 0 1.02 0 0 Z " fill="#E1DBBE" transform="translate(31,28)"/>
<path d="M0 0 C0.33 0.66 0.66 1.32 1 2 C-2.625 6.875 -2.625 6.875 -6 8 C-6 6.68 -6 5.36 -6 4 C-3 1.75 -3 1.75 0 0 Z " fill="#241B14" transform="translate(45,26)"/>
<path d="M0 0 C0.33 0.99 0.66 1.98 1 3 C1.66 3 2.32 3 3 3 C4.625 4.3125 4.625 4.3125 6 6 C6 6.99 6 7.98 6 9 C5.01 8.67 4.02 8.34 3 8 C3 7.34 3 6.68 3 6 C1.68 5.34 0.36 4.68 -1 4 C-0.67 2.68 -0.34 1.36 0 0 Z " fill="#DAC88A" transform="translate(18,43)"/>
<path d="M0 0 C0 0.99 0 1.98 0 3 C-0.66 3 -1.32 3 -2 3 C-2 3.66 -2 4.32 -2 5 C-1.34 5.33 -0.68 5.66 0 6 C-0.99 6 -1.98 6 -3 6 C-3.99 4.02 -4.98 2.04 -6 0 C-3 -1 -3 -1 0 0 Z " fill="#5B5647" transform="translate(34,33)"/>
<path d="M0 0 C0.99 0.33 1.98 0.66 3 1 C3 1.66 3 2.32 3 3 C1.68 2.67 0.36 2.34 -1 2 C-0.67 3.98 -0.34 5.96 0 8 C-1.65 7.67 -3.3 7.34 -5 7 C-4.67 6.34 -4.34 5.68 -4 5 C-3.34 5.33 -2.68 5.66 -2 6 C-2 4.35 -2 2.7 -2 1 C-1.34 0.67 -0.68 0.34 0 0 Z " fill="#998134" transform="translate(30,78)"/>
<path d="M0 0 C0.99 0.33 1.98 0.66 3 1 C3.33 1.99 3.66 2.98 4 4 C3.34 4 2.68 4 2 4 C2 6.31 2 8.62 2 11 C1.67 11 1.34 11 1 11 C0.67 7.37 0.34 3.74 0 0 Z " fill="#302F28" transform="translate(25,31)"/>
<path d="M0 0 C2.0625 0.6875 2.0625 0.6875 4 2 C4.75 4.125 4.75 4.125 5 6 C2.525 5.01 2.525 5.01 0 4 C0 3.34 0 2.68 0 2 C-0.66 1.67 -1.32 1.34 -2 1 C-1.34 0.67 -0.68 0.34 0 0 Z " fill="#D1BD70" transform="translate(24,56)"/>
<path d="M0 0 C1.32 0.66 2.64 1.32 4 2 C3.34 2 2.68 2 2 2 C1.67 3.32 1.34 4.64 1 6 C0.34 6 -0.32 6 -1 6 C-0.67 4.02 -0.34 2.04 0 0 Z " fill="#221C14" transform="translate(29,73)"/>
<path d="M0 0 C0.33 0.66 0.66 1.32 1 2 C1.66 2.33 2.32 2.66 3 3 C2.01 3 1.02 3 0 3 C-0.33 3.99 -0.66 4.98 -1 6 C-1.33 5.01 -1.66 4.02 -2 3 C-2.66 3 -3.32 3 -4 3 C-3 1 -3 1 0 0 Z " fill="#C19A10" transform="translate(50,46)"/>
<path d="M0 0 C1.65 0 3.3 0 5 0 C4.67 0.99 4.34 1.98 4 3 C3.01 3.33 2.02 3.66 1 4 C0.67 4.66 0.34 5.32 0 6 C-0.66 5.67 -1.32 5.34 -2 5 C-1.34 3.35 -0.68 1.7 0 0 Z " fill="#817245" transform="translate(35,40)"/>
</svg>
