<?xml version="1.0" encoding="UTF-8"?>
<svg version="1.1" xmlns="http://www.w3.org/2000/svg" width="177" height="76">
<path d="M0 0 C58.41 0 116.82 0 177 0 C177 25.08 177 50.16 177 76 C118.59 76 60.18 76 0 76 C0 50.92 0 25.84 0 0 Z " fill="#FEFEFD" transform="translate(0,0)"/>
<path d="M0 0 C2.61869752 2.61869752 3.62344857 3.93281288 5.125 7.125 C7.45382621 11.93743844 9.92229646 16.65853629 12.4375 21.375 C13.21398115 22.84481999 13.99002665 24.31487023 14.765625 25.78515625 C16.15099995 28.40917046 17.55627844 31.02012562 18.984375 33.62109375 C19.54640625 34.67425781 20.1084375 35.72742187 20.6875 36.8125 C21.18636719 37.72644531 21.68523438 38.64039063 22.19921875 39.58203125 C23 42 23 42 22.25 44.17578125 C19.19697829 48.63128481 15.88169055 52.15286863 11.7265625 55.57421875 C10.2536082 56.79057241 8.83854588 58.07646967 7.4375 59.375 C5 61 5 61 2.125 61.6875 C-1.91993909 60.7976134 -3.40193467 59.0031357 -6.140625 56.00390625 C-8.03022617 53.96742432 -10.01471726 52.17984708 -12.125 50.375 C-13.11693359 49.50875 -13.11693359 49.50875 -14.12890625 48.625 C-15.29353642 47.61354665 -16.46664977 46.61167679 -17.65234375 45.625 C-19.0625 44.375 -19.0625 44.375 -21 42 C-20.676235 37.45919589 -18.5027227 33.65845295 -16.4375 29.6875 C-15.9434668 28.71973633 -15.9434668 28.71973633 -15.43945312 27.73242188 C-14.63175745 26.15214772 -13.81662387 24.57567895 -13 23 C-12.01 23 -11.02 23 -10 23 C-10.33 22.01 -10.66 21.02 -11 20 C-9.8125 17.3125 -9.8125 17.3125 -8 15 C-4 15 -4 15 -2 16 C-2 16.66 -2 17.32 -2 18 C-2.66 18 -3.32 18 -4 18 C-4 18.66 -4 19.32 -4 20 C-3.01 20.33 -2.02 20.66 -1 21 C-0.67 14.07 -0.34 7.14 0 0 Z " fill="#978140" transform="translate(27,7)"/>
<path d="M0 0 C0.86625 0.01289063 1.7325 0.02578125 2.625 0.0390625 C5 0.375 5 0.375 8 2.375 C10.78855122 1.97928244 10.78855122 1.97928244 13 0.375 C14.95422866 0.22332852 16.91509729 0.15320004 18.875 0.125 C20.47988281 0.08632813 20.47988281 0.08632813 22.1171875 0.046875 C25 0.375 25 0.375 26.6574707 1.63769531 C28.30119414 3.76476132 28.37431635 4.83725938 28.36328125 7.5 C28.36263672 8.28890625 28.36199219 9.0778125 28.36132812 9.890625 C28.34521484 10.71046875 28.32910156 11.5303125 28.3125 12.375 C28.31572266 13.19484375 28.31894531 14.0146875 28.32226562 14.859375 C28.26731366 20.9740295 28.26731366 20.9740295 26 24.375 C23.13671875 24.7734375 23.13671875 24.7734375 19.6875 24.75 C18.55699219 24.75773437 17.42648438 24.76546875 16.26171875 24.7734375 C12.76131374 24.34584312 10.84973114 23.39601008 8 21.375 C7.67 22.365 7.34 23.355 7 24.375 C5.06372231 24.48307131 3.12572244 24.5606225 1.1875 24.625 C-0.43091797 24.69460937 -0.43091797 24.69460937 -2.08203125 24.765625 C-5 24.375 -5 24.375 -6.86328125 22.859375 C-8.45271812 19.3855542 -8.43604654 16.11918753 -8.375 12.375 C-8.38660156 11.6634375 -8.39820312 10.951875 -8.41015625 10.21875 C-8.39271346 7.10230455 -8.16564939 4.71377972 -6.7890625 1.8984375 C-4.42553053 -0.11417706 -3.07234349 -0.10058267 0 0 Z " fill="#F9F7EB" transform="translate(101,27.625)"/>
<path d="M0 0 C0.66 0 1.32 0 2 0 C2 6.93 2 13.86 2 21 C5.63 21 9.26 21 13 21 C13 14.07 13 7.14 13 0 C16.6196875 -0.1546875 16.6196875 -0.1546875 20.3125 -0.3125 C21.06829346 -0.35802002 21.82408691 -0.40354004 22.6027832 -0.45043945 C24.42578125 -0.48828125 24.42578125 -0.48828125 28 0 C31.40995106 3.62052573 31.37996785 7.18383313 31.3125 12 C31.30863281 13.19625 31.30476563 14.3925 31.30078125 15.625 C31.01181655 18.86740907 30.49591659 21.12445716 29 24 C26.23382437 25.38308781 23.98982 25.11210196 20.8984375 25.09765625 C19.68671875 25.09443359 18.475 25.09121094 17.2265625 25.08789062 C15.95554688 25.07951172 14.68453125 25.07113281 13.375 25.0625 C12.09625 25.05798828 10.8175 25.05347656 9.5 25.04882812 C6.33331355 25.03701213 3.16665104 25.01907621 0 25 C0 16.75 0 8.5 0 0 Z " fill="#C9A828" transform="translate(131,28)"/>
<path d="M0 0 C2.43375 -0.04125 4.8675 -0.0825 7.375 -0.125 C8.13989746 -0.14320801 8.90479492 -0.16141602 9.69287109 -0.18017578 C11.46287275 -0.1948117 13.23272455 -0.09928514 15 0 C17 2 17 2 17.16015625 4.56640625 C17.12792969 5.55511719 17.09570312 6.54382812 17.0625 7.5625 C17.00831064 9.37430953 16.97963477 11.18749468 17 13 C17.33 13.33 17.66 13.66 18 14 C18.27314815 19.73611111 18.27314815 19.73611111 18 22 C16 24 16 24 12.3046875 24.1953125 C10.82798332 24.1838709 9.35138199 24.15789907 7.875 24.125 C5.27625 24.08375 2.6775 24.0425 0 24 C0 16.08 0 8.16 0 0 Z " fill="#CBAA2F" transform="translate(55,28)"/>
<path d="M0 0 C3.1773782 0 4.36760372 0.32579597 7 2 C8.265625 3.8046875 8.265625 3.8046875 9.25 5.875 C9.58515625 6.55304687 9.9203125 7.23109375 10.265625 7.9296875 C11 10 11 10 11 14 C9.671875 15.53515625 9.671875 15.53515625 7.75 17.0625 C3.32556079 20.70054876 -0.86567894 24.53508266 -5.04980469 28.44360352 C-8.89287695 32 -8.89287695 32 -10 32 C-9.98839844 31.3709375 -9.97679687 30.741875 -9.96484375 30.09375 C-9.90713127 24.61930912 -10.19771527 19.41542194 -11 14 C-12.65 15.65 -14.3 17.3 -16 19 C-16.02705729 17.22925083 -16.04642195 15.45838289 -16.0625 13.6875 C-16.07410156 12.70136719 -16.08570312 11.71523438 -16.09765625 10.69921875 C-16 8 -16 8 -15 5 C-14.34 5 -13.68 5 -13 5 C-12.01 6.485 -12.01 6.485 -11 8 C-10.34 7.34 -9.68 6.68 -9 6 C-6.375 6.375 -6.375 6.375 -4 7 C-3.67 8.65 -3.34 10.3 -3 12 C-2.34 12 -1.68 12 -1 12 C-0.67 8.04 -0.34 4.08 0 0 Z " fill="#41361E" transform="translate(37,35)"/>
<path d="M0 0 C2.6590531 2.6590531 3.70924961 4.10904319 5.25 7.375 C7.86334813 12.79350163 10.73413059 18.05019774 13.64453125 23.3125 C15 26 15 26 15 28 C14.34 28 13.68 28 13 28 C12.67 28.66 12.34 29.32 12 30 C11.67 29.67 11.34 29.34 11 29 C10.67 33.29 10.34 37.58 10 42 C9.67 41.34 9.34 40.68 9 40 C8.34 40 7.68 40 7 40 C6.731875 39.195625 6.46375 38.39125 6.1875 37.5625 C5.795625 36.716875 5.40375 35.87125 5 35 C4.01 34.67 3.02 34.34 2 34 C1.375 31.125 1.375 31.125 1 28 C1.66 27.34 2.32 26.68 3 26 C3.99 26.33 4.98 26.66 6 27 C6 26.34 6 25.68 6 25 C3.36 24.34 0.72 23.68 -2 23 C-2 23.66 -2 24.32 -2 25 C-2.66 25 -3.32 25 -4 25 C-4 25.66 -4 26.32 -4 27 C-5.32 27.33 -6.64 27.66 -8 28 C-8.33 24.04 -8.66 20.08 -9 16 C-7 15 -7 15 -4 15 C-3.34 15.33 -2.68 15.66 -2 16 C-2 16.66 -2 17.32 -2 18 C-2.66 18 -3.32 18 -4 18 C-4 18.66 -4 19.32 -4 20 C-3.01 20.33 -2.02 20.66 -1 21 C-0.67 14.07 -0.34 7.14 0 0 Z " fill="#B8950F" transform="translate(27,7)"/>
<path d="M0 0 C1.0725 0.00515625 2.145 0.0103125 3.25 0.015625 C4.85875 0.00789063 4.85875 0.00789063 6.5 0 C9.25 0.265625 9.25 0.265625 11.25 2.265625 C11.55078125 4.76171875 11.55078125 4.76171875 11.5625 7.703125 C11.58763672 9.15525391 11.58763672 9.15525391 11.61328125 10.63671875 C11.25 13.265625 11.25 13.265625 10.0234375 15.1015625 C7.72603756 16.60954748 6.28711092 16.57158634 3.5625 16.453125 C2.75425781 16.42605469 1.94601563 16.39898437 1.11328125 16.37109375 C0.49839844 16.33628906 -0.11648437 16.30148438 -0.75 16.265625 C-0.75 17.255625 -0.75 18.245625 -0.75 19.265625 C3.21 19.265625 7.17 19.265625 11.25 19.265625 C11.25 20.915625 11.25 22.565625 11.25 24.265625 C5.97 24.265625 0.69 24.265625 -4.75 24.265625 C-4.75 20.635625 -4.75 17.005625 -4.75 13.265625 C2.75 10.265625 2.75 10.265625 7.25 10.265625 C7.25 8.945625 7.25 7.625625 7.25 6.265625 C4.61 6.265625 1.97 6.265625 -0.75 6.265625 C-0.75 7.255625 -0.75 8.245625 -0.75 9.265625 C-2.07 9.265625 -3.39 9.265625 -4.75 9.265625 C-4.875 5.890625 -4.875 5.890625 -4.75 2.265625 C-2.75 0.265625 -2.75 0.265625 0 0 Z " fill="#C49F12" transform="translate(79.75,27.734375)"/>
<path d="M0 0 C0.66 0.33 1.32 0.66 2 1 C2.4140625 3.06640625 2.4140625 3.06640625 2.625 5.5625 C2.69976562 6.38878906 2.77453125 7.21507812 2.8515625 8.06640625 C2.90054687 8.70449219 2.94953125 9.34257813 3 10 C3.99 10 4.98 10 6 10 C6 9.34 6 8.68 6 8 C6.66 8 7.32 8 8 8 C8 7.34 8 6.68 8 6 C13.75 6.875 13.75 6.875 16 8 C16 8.66 16 9.32 16 10 C14.68 10.33 13.36 10.66 12 11 C12.061875 11.928125 12.12375 12.85625 12.1875 13.8125 C12 17 12 17 10.5 18.875 C10.005 19.24625 9.51 19.6175 9 20 C8.34 18.68 7.68 17.36 7 16 C6.34 16 5.68 16 5 16 C4.67 19.3 4.34 22.6 4 26 C-0.82260655 23.58869672 -3.997207 20.6025137 -8 17 C-6.35 13.37 -4.7 9.74 -3 6 C-2.01 6 -1.02 6 0 6 C-0.33 5.01 -0.66 4.02 -1 3 C-0.67 2.01 -0.34 1.02 0 0 Z " fill="#B19B53" transform="translate(17,24)"/>
<path d="M0 0 C1.50046875 0.00386719 1.50046875 0.00386719 3.03125 0.0078125 C4.0315625 0.00523438 5.031875 0.00265625 6.0625 0 C8.53125 0.1328125 8.53125 0.1328125 9.53125 1.1328125 C9.63106214 3.8101263 9.67004875 6.45585425 9.65625 9.1328125 C9.66011719 9.88304687 9.66398437 10.63328125 9.66796875 11.40625 C9.65786053 17.00620197 9.65786053 17.00620197 8.53125 18.1328125 C6.51160801 18.20525303 4.48957876 18.21658438 2.46875 18.1953125 C1.36402344 18.18628906 0.25929688 18.17726563 -0.87890625 18.16796875 C-2.16087891 18.15056641 -2.16087891 18.15056641 -3.46875 18.1328125 C-3.49559312 15.32024969 -3.51551188 12.50794009 -3.53125 9.6953125 C-3.53962891 8.89287109 -3.54800781 8.09042969 -3.55664062 7.26367188 C-3.5652643 5.21986029 -3.5210315 3.17597348 -3.46875 1.1328125 C-2.46875 0.1328125 -2.46875 0.1328125 0 0 Z " fill="#FDFCF7" transform="translate(117.46875,30.8671875)"/>
<path d="M0 0 C8.3984375 -0.1953125 8.3984375 -0.1953125 11 0 C13 2 13 2 13.23046875 5.44140625 C13.22647911 6.81517304 13.21173177 8.18894114 13.1875 9.5625 C13.18685547 10.26052734 13.18621094 10.95855469 13.18554688 11.67773438 C13.14031158 16.85968842 13.14031158 16.85968842 12 18 C7.99779347 18.14355117 4.00558317 18.04216403 0 18 C0 12.06 0 6.12 0 0 Z " fill="#FCFCF7" transform="translate(147,31)"/>
<path d="M0 0 C0.85464844 0.00128906 1.70929688 0.00257812 2.58984375 0.00390625 C5.51581372 0.51699103 6.93572484 1.38406192 9.0625 3.4375 C9.3125 6.125 9.3125 6.125 9.0625 8.4375 C8.4025 8.4375 7.7425 8.4375 7.0625 8.4375 C6.7325 7.4475 6.4025 6.4575 6.0625 5.4375 C2.4325 5.4375 -1.1975 5.4375 -4.9375 5.4375 C-4.9375 10.3875 -4.9375 15.3375 -4.9375 20.4375 C-1.3075 20.4375 2.3225 20.4375 6.0625 20.4375 C6.3925 18.7875 6.7225 17.1375 7.0625 15.4375 C4.7525 15.4375 2.4425 15.4375 0.0625 15.4375 C0.0625 14.4475 0.0625 13.4575 0.0625 12.4375 C3.0325 12.4375 6.0025 12.4375 9.0625 12.4375 C9.3125 21.0625 9.3125 21.0625 7.0625 24.4375 C4.34765625 24.87109375 4.34765625 24.87109375 1.125 24.875 C0.06410156 24.89433594 -0.99679688 24.91367187 -2.08984375 24.93359375 C-4.9375 24.4375 -4.9375 24.4375 -6.79296875 22.91015625 C-8.39758008 19.4435386 -8.37351996 16.18005781 -8.3125 12.4375 C-8.32410156 11.7259375 -8.33570312 11.014375 -8.34765625 10.28125 C-8.33020823 7.1638711 -8.10512974 4.7786885 -6.72265625 1.96484375 C-4.38183042 -0.03791971 -3.05279752 -0.06886009 0 0 Z " fill="#C9AA2F" transform="translate(100.9375,27.5625)"/>
<path d="M0 0 C1.59134766 -0.02513672 1.59134766 -0.02513672 3.21484375 -0.05078125 C6.46154933 0.36340753 7.10722215 0.7895952 9.0625 3.3125 C9.43481445 5.2578125 9.43481445 5.2578125 9.42578125 7.4375 C9.42513672 8.22640625 9.42449219 9.0153125 9.42382812 9.828125 C9.40771484 10.64796875 9.39160156 11.4678125 9.375 12.3125 C9.37983398 13.54226562 9.37983398 13.54226562 9.38476562 14.796875 C9.32981366 20.9115295 9.32981366 20.9115295 7.0625 24.3125 C4.09375 24.67578125 4.09375 24.67578125 0.5625 24.625 C-1.18546875 24.61919922 -1.18546875 24.61919922 -2.96875 24.61328125 C-5.9375 24.3125 -5.9375 24.3125 -7.9375 22.3125 C-8.19628906 20.28125 -8.19628906 20.28125 -8.203125 17.8125 C-8.20570312 16.925625 -8.20828125 16.03875 -8.2109375 15.125 C-8.19933594 13.7328125 -8.19933594 13.7328125 -8.1875 12.3125 C-8.19523437 11.384375 -8.20296875 10.45625 -8.2109375 9.5 C-8.20835938 8.613125 -8.20578125 7.72625 -8.203125 6.8125 C-8.20086914 5.9978125 -8.19861328 5.183125 -8.19628906 4.34375 C-7.57926706 -0.49929066 -4.02361602 0.01463133 0 0 Z M-5.9375 4.3125 C-6.01075168 7.17517567 -6.02988205 10.013219 -6 12.875 C-5.99548828 13.68130859 -5.99097656 14.48761719 -5.98632812 15.31835938 C-5.97450518 17.31643756 -5.95656914 19.31447783 -5.9375 21.3125 C-3.95840602 21.33936553 -1.97921029 21.35883375 0 21.375 C1.10214844 21.38660156 2.20429687 21.39820312 3.33984375 21.41015625 C5.97697634 21.62512571 5.97697634 21.62512571 7.0625 20.3125 C7.16231214 17.6351862 7.20129875 14.98945825 7.1875 12.3125 C7.19136719 11.56226563 7.19523437 10.81203125 7.19921875 10.0390625 C7.53925541 6.37643883 7.53925541 6.37643883 6.0625 3.3125 C4.23134117 3.21398829 2.39630067 3.18277371 0.5625 3.1875 C-0.93796875 3.18363281 -0.93796875 3.18363281 -2.46875 3.1796875 C-4.88149622 3.03379618 -4.88149622 3.03379618 -5.9375 4.3125 Z " fill="#D0B445" transform="translate(119.9375,27.6875)"/>
<path d="M0 0 C2.73647359 2.73647359 4.00701628 4.60875357 5.6875 8 C6.12449219 8.86625 6.56148437 9.7325 7.01171875 10.625 C8 13 8 13 8 16 C7.030625 16.4125 6.06125 16.825 5.0625 17.25 C1.87739901 18.64899168 1.87739901 18.64899168 1.125 21.1875 C1.08375 21.785625 1.0425 22.38375 1 23 C0.01 23 -0.98 23 -2 23 C-2 23.66 -2 24.32 -2 25 C-2.66 25 -3.32 25 -4 25 C-4 25.66 -4 26.32 -4 27 C-5.32 27.33 -6.64 27.66 -8 28 C-8.33 24.04 -8.66 20.08 -9 16 C-7 15 -7 15 -4 15 C-3.34 15.33 -2.68 15.66 -2 16 C-2 16.66 -2 17.32 -2 18 C-2.66 18 -3.32 18 -4 18 C-4 18.66 -4 19.32 -4 20 C-3.01 20.33 -2.02 20.66 -1 21 C-0.67 14.07 -0.34 7.14 0 0 Z " fill="#60542F" transform="translate(27,7)"/>
<path d="M0 0 C1.32 0.99 2.64 1.98 4 3 C2.56030948 8.03891682 -0.01900215 9.86602297 -4 13 C-4.33 13.66 -4.66 14.32 -5 15 C-5.99 15 -6.98 15 -8 15 C-8.33 15.99 -8.66 16.98 -9 18 C-12.45214853 20.30143236 -13.23479324 20.13833854 -17.1875 19.625 C-18.08855469 19.51414062 -18.98960938 19.40328125 -19.91796875 19.2890625 C-20.60503906 19.19367188 -21.29210937 19.09828125 -22 19 C-21.08154297 18.55914062 -21.08154297 18.55914062 -20.14453125 18.109375 C-17.44003148 16.71032594 -15.33691346 14.95648568 -13 13 C-12.17628906 12.33291016 -12.17628906 12.33291016 -11.3359375 11.65234375 C-7.06912192 8.12799168 -3.47499493 4.30237468 0 0 Z " fill="#CAC9CA" transform="translate(50,50)"/>
<path d="M0 0 C0.66 0 1.32 0 2 0 C2 6.93 2 13.86 2 21 C5.63 21 9.26 21 13 21 C13 14.07 13 7.14 13 0 C17.95 0 22.9 0 28 0 C28 0.33 28 0.66 28 1 C23.38 1 18.76 1 14 1 C14 8.59 14 16.18 14 24 C18.29 24 22.58 24 27 24 C27 24.33 27 24.66 27 25 C18.09 25 9.18 25 0 25 C0 16.75 0 8.5 0 0 Z " fill="#EADFAD" transform="translate(131,28)"/>
<path d="M0 0 C0.66 0 1.32 0 2 0 C2.66 0.99 3.32 1.98 4 3 C4.66 2.34 5.32 1.68 6 1 C8.625 1.375 8.625 1.375 11 2 C11.64857671 5.16181148 12 7.78430922 12 11 C9.625 13.6875 9.625 13.6875 7 16 C6.34 16 5.68 16 5 16 C4.67 13.69 4.34 11.38 4 9 C2.35 10.65 0.7 12.3 -1 14 C-1.02705729 12.22925083 -1.04642195 10.45838289 -1.0625 8.6875 C-1.07410156 7.70136719 -1.08570312 6.71523438 -1.09765625 5.69921875 C-1 3 -1 3 0 0 Z " fill="#3C3019" transform="translate(22,40)"/>
<path d="M0 0 C1.0725 0.00515625 2.145 0.0103125 3.25 0.015625 C4.85875 0.00789063 4.85875 0.00789063 6.5 0 C9.25 0.265625 9.25 0.265625 11.25 2.265625 C10.875 4.390625 10.875 4.390625 10.25 6.265625 C9.92 5.935625 9.59 5.605625 9.25 5.265625 C9.311875 6.049375 9.37375 6.833125 9.4375 7.640625 C9.375625 8.506875 9.31375 9.373125 9.25 10.265625 C8.26 10.925625 7.27 11.585625 6.25 12.265625 C5.26 11.605625 4.27 10.945625 3.25 10.265625 C4.57 10.265625 5.89 10.265625 7.25 10.265625 C7.25 8.945625 7.25 7.625625 7.25 6.265625 C4.61 6.265625 1.97 6.265625 -0.75 6.265625 C-0.75 7.255625 -0.75 8.245625 -0.75 9.265625 C-2.07 9.265625 -3.39 9.265625 -4.75 9.265625 C-4.875 5.890625 -4.875 5.890625 -4.75 2.265625 C-2.75 0.265625 -2.75 0.265625 0 0 Z " fill="#C7A523" transform="translate(79.75,27.734375)"/>
<path d="M0 0 C3.21518097 0 4.41024759 0.1621112 7 2 C8.25 5.125 8.25 5.125 9 8 C7.948125 8.721875 6.89625 9.44375 5.8125 10.1875 C2.53806994 12.52168207 -0.18935141 15.11728349 -3 18 C-4.96778029 19.71009477 -6.97764655 21.35389836 -9 23 C-9.33 22.34 -9.66 21.68 -10 21 C-7.69 19.02 -5.38 17.04 -3 15 C-3.99 14.67 -4.98 14.34 -6 14 C-5.34 13.34 -4.68 12.68 -4 12 C-3.01 12 -2.02 12 -1 12 C-0.67 8.04 -0.34 4.08 0 0 Z " fill="#3E341C" transform="translate(37,35)"/>
<path d="M0 0 C0.66 1.32 1.32 2.64 2 4 C-1.95035305 8.8909133 -6.13067691 13.03367345 -11 17 C-11.886875 17.78375 -12.77375 18.5675 -13.6875 19.375 C-16 21 -16 21 -20 21 C-18.63177112 17.90339292 -17.09738298 15.88711628 -14.62890625 13.58203125 C-13.64374023 12.66067383 -13.64374023 12.66067383 -12.63867188 11.72070312 C-11.6109668 10.77614258 -11.6109668 10.77614258 -10.5625 9.8125 C-9.5405957 8.85053711 -9.5405957 8.85053711 -8.49804688 7.86914062 C-3.3877876 3.12926253 -3.3877876 3.12926253 0 2 C0 1.34 0 0.68 0 0 Z " fill="#858482" transform="translate(48,47)"/>
<path d="M0 0 C0.99 0 1.98 0 3 0 C3 1.98 3 3.96 3 6 C4.32 6 5.64 6 7 6 C7 5.01 7 4.02 7 3 C9.64 3 12.28 3 15 3 C15 4.32 15 5.64 15 7 C9.555 8.485 9.555 8.485 4 10 C3.67 13.63 3.34 17.26 3 21 C0.68642812 17.52964218 0.51155902 15.09247216 0 11 C-0.33 10.01 -0.66 9.02 -1 8 C-0.83988879 5.29876894 -0.39559392 2.68124769 0 0 Z " fill="#F1EAC9" transform="translate(72,31)"/>
<path d="M0 0 C5.75 0.875 5.75 0.875 8 2 C8 2.66 8 3.32 8 4 C6.68 4.33 5.36 4.66 4 5 C4.061875 5.928125 4.12375 6.85625 4.1875 7.8125 C4 11 4 11 2.5 12.875 C2.005 13.24625 1.51 13.6175 1 14 C0.34 12.68 -0.32 11.36 -1 10 C-1.99 10.33 -2.98 10.66 -4 11 C-4.66 9.02 -5.32 7.04 -6 5 C-4.68 4.67 -3.36 4.34 -2 4 C-2 3.34 -2 2.68 -2 2 C-1.34 2 -0.68 2 0 2 C0 1.34 0 0.68 0 0 Z " fill="#6B571D" transform="translate(25,30)"/>
<path d="M0 0 C1.65804926 2.4870739 3.19874478 4.97317502 4.6875 7.5625 C5.14511719 8.34753906 5.60273437 9.13257813 6.07421875 9.94140625 C6.37972656 10.62074219 6.68523438 11.30007812 7 12 C6.67 12.66 6.34 13.32 6 14 C5.67 13.67 5.34 13.34 5 13 C2.66702567 12.95907063 0.33294775 12.95758277 -2 13 C-2 12.34 -2 11.68 -2 11 C-4.475 10.01 -4.475 10.01 -7 9 C-7 7.35 -7 5.7 -7 4 C-4.35261084 2.5393715 -3.10551666 2 0 2 C0 1.34 0 0.68 0 0 Z " fill="#C19F18" transform="translate(35,21)"/>
<path d="M0 0 C2.47923801 -0.02685095 4.9581884 -0.04676547 7.4375 -0.0625 C8.14455078 -0.07087891 8.85160156 -0.07925781 9.58007812 -0.08789062 C11.38693559 -0.09653588 13.19387603 -0.05220011 15 0 C16 1 16 1 16.0625 4.5625 C16.041875 5.696875 16.02125 6.83125 16 8 C15.01 8.33 14.02 8.66 13 9 C12.67 7.68 12.34 6.36 12 5 C9.36 4.67 6.72 4.34 4 4 C4 3.01 4 2.02 4 1 C3.34 1 2.68 1 2 1 C2.20625 2.093125 2.4125 3.18625 2.625 4.3125 C3 8 3 8 1 11 C-0.20272819 8.59454362 -0.10071472 7.05003047 -0.0625 4.375 C-0.05347656 3.55773438 -0.04445312 2.74046875 -0.03515625 1.8984375 C-0.02355469 1.27195312 -0.01195312 0.64546875 0 0 Z " fill="#C49C0D" transform="translate(56,29)"/>
<path d="M0 0 C0.33 0 0.66 0 1 0 C1.1963696 2.37456165 1.38231294 4.74920019 1.5625 7.125 C1.61857422 7.79015625 1.67464844 8.4553125 1.73242188 9.140625 C2.04898364 13.44586499 1.7284638 16.62921718 1 21 C-4.61 21 -10.22 21 -16 21 C-16 20.67 -16 20.34 -16 20 C-10.72 20 -5.44 20 0 20 C0 18.35 0 16.7 0 15 C-3.96 15 -7.92 15 -12 15 C-12 14.01 -12 13.02 -12 12 C-6.555 11.505 -6.555 11.505 -1 11 C-0.67 7.37 -0.34 3.74 0 0 Z " fill="#F2EBCF" transform="translate(91,32)"/>
<path d="M0 0 C9.12177122 6.64206642 9.12177122 6.64206642 12 10 C12 10.66 12 11.32 12 12 C8.93224489 10.57568513 6.78959901 9.09219926 4 7 C6.64 9.64 9.28 12.28 12 15 C11.34 15.66 10.68 16.32 10 17 C9.30132812 16.28972656 8.60265625 15.57945313 7.8828125 14.84765625 C6.97273437 13.92855469 6.06265625 13.00945313 5.125 12.0625 C4.22007813 11.14597656 3.31515625 10.22945312 2.3828125 9.28515625 C0.22317745 6.98812373 0.22317745 6.98812373 -2 6 C-1.34 4.02 -0.68 2.04 0 0 Z " fill="#C8AA37" transform="translate(8,42)"/>
<path d="M0 0 C0.99 0.33 1.98 0.66 3 1 C3 6.61 3 12.22 3 18 C1.68 17.34 0.36 16.68 -1 16 C-1 15.34 -1 14.68 -1 14 C-0.34 14 0.32 14 1 14 C0.67 13.34 0.34 12.68 0 12 C-0.99 12.495 -0.99 12.495 -2 13 C-2.66 12.34 -3.32 11.68 -4 11 C-3.625 7.875 -3.625 7.875 -3 5 C-2.34 5 -1.68 5 -1 5 C-0.67 3.35 -0.34 1.7 0 0 Z " fill="#C6C0A7" transform="translate(24,11)"/>
<path d="M0 0 C0.66 0.33 1.32 0.66 2 1 C2.45221044 3.47681272 2.79558201 5.87757604 3.0625 8.375 C3.65421941 13.76003897 3.65421941 13.76003897 5 19 C1.05860922 17.33248852 -1.7892812 14.77289351 -5 12 C-4.34 10.02 -3.68 8.04 -3 6 C-2.01 6 -1.02 6 0 6 C-0.33 5.01 -0.66 4.02 -1 3 C-0.67 2.01 -0.34 1.02 0 0 Z " fill="#B4A674" transform="translate(17,24)"/>
<path d="M0 0 C0.66 0 1.32 0 2 0 C2 7.26 2 14.52 2 22 C5.3 22 8.6 22 12 22 C12 22.66 12 23.32 12 24 C8.04 24 4.08 24 0 24 C0 16.08 0 8.16 0 0 Z " fill="#C7A524" transform="translate(131,28)"/>
<path d="M0 0 C0.66 0.33 1.32 0.66 2 1 C2 3 2 3 0.6015625 4.41015625 C-0.05070312 4.95542969 -0.70296875 5.50070313 -1.375 6.0625 C-5.65834459 9.68804524 -9.78372133 13.46199548 -13.8984375 17.27734375 C-16 19 -16 19 -18 19 C-17.43871262 15.41399731 -16.28132799 14.02362526 -13.5 11.75 C-12.43265625 10.85861328 -12.43265625 10.85861328 -11.34375 9.94921875 C-10.5703125 9.30597656 -9.796875 8.66273437 -9 8 C-7.32809207 6.52676014 -5.66130519 5.04768581 -4 3.5625 C-3.236875 2.88316406 -2.47375 2.20382813 -1.6875 1.50390625 C-1.130625 1.00761719 -0.57375 0.51132812 0 0 Z " fill="#241D15" transform="translate(46,46)"/>
<path d="M0 0 C0.66 0.33 1.32 0.66 2 1 C1.67 1.99 1.34 2.98 1 4 C0.34 4 -0.32 4 -1 4 C-1.66 5.32 -2.32 6.64 -3 8 C-3.66 8 -4.32 8 -5 8 C-5.226875 8.61875 -5.45375 9.2375 -5.6875 9.875 C-7.38862958 12.6292098 -9.05376154 12.82150461 -12 14 C-13.28436734 15.9837767 -13.28436734 15.9837767 -14 18 C-15 19 -15 19 -18.5625 19.0625 C-19.696875 19.041875 -20.83125 19.02125 -22 19 C-21.443125 18.7525 -20.88625 18.505 -20.3125 18.25 C-17.56999714 16.76756602 -15.39291825 15.00337342 -13 13 C-12.17628906 12.33291016 -12.17628906 12.33291016 -11.3359375 11.65234375 C-7.06912192 8.12799168 -3.47499493 4.30237468 0 0 Z " fill="#ACACAC" transform="translate(50,50)"/>
<path d="M0 0 C4 0 4 0 6 1 C6 1.66 6 2.32 6 3 C5.34 3 4.68 3 4 3 C4 3.66 4 4.32 4 5 C4.99 5.33 5.98 5.66 7 6 C6.67 7.32 6.34 8.64 6 10 C5.34 10 4.68 10 4 10 C4 10.66 4 11.32 4 12 C2.68 12.33 1.36 12.66 0 13 C-0.19397476 11.02145742 -0.38001321 9.0421352 -0.5625 7.0625 C-0.66691406 5.96035156 -0.77132813 4.85820312 -0.87890625 3.72265625 C-0.91886719 2.82417969 -0.95882813 1.92570312 -1 1 C-0.67 0.67 -0.34 0.34 0 0 Z " fill="#110F10" transform="translate(19,22)"/>
<path d="M0 0 C0.66 0 1.32 0 2 0 C2.05428973 2.22889496 2.09292338 4.45817471 2.125 6.6875 C2.14820313 7.92886719 2.17140625 9.17023437 2.1953125 10.44921875 C2.01032021 13.81237857 1.45767895 15.9985587 0 19 C-1.97986082 18.88652381 -3.95891598 18.7589065 -5.9375 18.625 C-7.03964844 18.55539063 -8.14179688 18.48578125 -9.27734375 18.4140625 C-10.17582031 18.27742188 -11.07429687 18.14078125 -12 18 C-12.33 17.34 -12.66 16.68 -13 16 C-7.06 15.505 -7.06 15.505 -1 15 C-0.67 10.05 -0.34 5.1 0 0 Z " fill="#CAAD38" transform="translate(160,33)"/>
<path d="M0 0 C1.09054688 0.02320312 2.18109375 0.04640625 3.3046875 0.0703125 C4.40039062 0.08835937 5.49609375 0.10640625 6.625 0.125 C7.46804687 0.14820312 8.31109375 0.17140625 9.1796875 0.1953125 C9.1796875 0.5253125 9.1796875 0.8553125 9.1796875 1.1953125 C5.5496875 1.1953125 1.9196875 1.1953125 -1.8203125 1.1953125 C-2.1503125 7.7953125 -2.4803125 14.3953125 -2.8203125 21.1953125 C-3.4803125 21.5253125 -4.1403125 21.8553125 -4.8203125 22.1953125 C-4.87821603 18.90371934 -4.91387511 15.61225647 -4.9453125 12.3203125 C-4.96207031 11.38316406 -4.97882813 10.44601563 -4.99609375 9.48046875 C-5.00576172 8.13662109 -5.00576172 8.13662109 -5.015625 6.765625 C-5.02609863 5.93820801 -5.03657227 5.11079102 -5.04736328 4.25830078 C-4.66411402 0.77608972 -3.34832986 0.2318788 0 0 Z " fill="#D2B851" transform="translate(116.8203125,27.8046875)"/>
<path d="M0 0 C0.66 0 1.32 0 2 0 C3.75 2.1875 3.75 2.1875 5 5 C4.11109563 9.04945322 2.03337506 11.26996245 -1 14 C-1.02705729 12.22925083 -1.04642195 10.45838289 -1.0625 8.6875 C-1.07410156 7.70136719 -1.08570312 6.71523438 -1.09765625 5.69921875 C-1 3 -1 3 0 0 Z " fill="#10110D" transform="translate(22,40)"/>
<path d="M0 0 C0.99 0 1.98 0 3 0 C3 2.64 3 5.28 3 8 C1.56589632 8.24954005 0.12739928 8.47392642 -1.3125 8.6875 C-2.11300781 8.81511719 -2.91351563 8.94273438 -3.73828125 9.07421875 C-6 9 -6 9 -7.79296875 7.51953125 C-8.19128906 7.01808594 -8.58960938 6.51664063 -9 6 C-5.535 5.505 -5.535 5.505 -2 5 C-1.34 3.35 -0.68 1.7 0 0 Z " fill="#C49A09" transform="translate(70,42)"/>
<path d="M0 0 C0.33 0.99 0.66 1.98 1 3 C-0.28965176 4.37562854 -1.62689293 5.70766393 -3 7 C-3.66 7 -4.32 7 -5 7 C-5.33 8.32 -5.66 9.64 -6 11 C-7.65 11.33 -9.3 11.66 -11 12 C-9.49650623 8.33213607 -7.36271208 6.31089607 -4.375 3.75 C-3.14910156 2.69039062 -3.14910156 2.69039062 -1.8984375 1.609375 C-1.27195312 1.07828125 -0.64546875 0.5471875 0 0 Z " fill="#756E57" transform="translate(39,56)"/>
<path d="M0 0 C0.66 0 1.32 0 2 0 C2.8125 1.6875 2.8125 1.6875 3 4 C-0.48810553 8.14212532 -4.85337562 11.52257148 -9 15 C-9.33 14.34 -9.66 13.68 -10 13 C-7.69 11.02 -5.38 9.04 -3 7 C-3.99 6.67 -4.98 6.34 -6 6 C-5.34 5.34 -4.68 4.68 -4 4 C-3.01 4 -2.02 4 -1 4 C-0.67 2.68 -0.34 1.36 0 0 Z " fill="#60501B" transform="translate(37,43)"/>
<path d="M0 0 C2 1 4 2 6 3 C6 5.64 6 8.28 6 11 C3.69 9.02 1.38 7.04 -1 5 C-0.01 4.67 0.98 4.34 2 4 C1.34 2.68 0.68 1.36 0 0 Z " fill="#C1A334" transform="translate(21,55)"/>
<path d="M0 0 C9.12177122 6.64206642 9.12177122 6.64206642 12 10 C12 10.66 12 11.32 12 12 C8.25732302 10.30551328 5.66573877 8.01843832 2.68359375 5.2421875 C0.94636851 3.7031458 0.94636851 3.7031458 -2 4 C-1.34 2.68 -0.68 1.36 0 0 Z " fill="#CEB450" transform="translate(8,42)"/>
<path d="M0 0 C0.66 0 1.32 0 2 0 C2 3.3 2 6.6 2 10 C1.34 10 0.68 10 0 10 C0 9.34 0 8.68 0 8 C-1.32 7.34 -2.64 6.68 -4 6 C-4 5.34 -4 4.68 -4 4 C-3.34 4 -2.68 4 -2 4 C-2 3.34 -2 2.68 -2 2 C-1.34 2 -0.68 2 0 2 C0 1.34 0 0.68 0 0 Z " fill="#BFB07C" transform="translate(25,30)"/>
<path d="M0 0 C1.79133978 -0.05391993 3.58313899 -0.09275571 5.375 -0.125 C6.37273437 -0.14820312 7.37046875 -0.17140625 8.3984375 -0.1953125 C11 0 11 0 13 2 C13.125 4.625 13.125 4.625 13 7 C12.34 7 11.68 7 11 7 C10.67 6.01 10.34 5.02 10 4 C6.7 3.34 3.4 2.68 0 2 C0 1.34 0 0.68 0 0 Z " fill="#C6A421" transform="translate(97,29)"/>
<path d="M0 0 C2.97 0 5.94 0 9 0 C9 1.32 9 2.64 9 4 C6.03 4 3.06 4 0 4 C0 2.68 0 1.36 0 0 Z " fill="#F7F5E5" transform="translate(60,43)"/>
<path d="M0 0 C2.97 0 5.94 0 9 0 C9 1.32 9 2.64 9 4 C6.03 4 3.06 4 0 4 C0 2.68 0 1.36 0 0 Z " fill="#F7F2D9" transform="translate(60,34)"/>
<path d="M0 0 C0.66 0.33 1.32 0.66 2 1 C1.67 2.32 1.34 3.64 1 5 C0.67 4.67 0.34 4.34 0 4 C0.061875 4.78375 0.12375 5.5675 0.1875 6.375 C0.125625 7.24125 0.06375 8.1075 0 9 C-0.99 9.66 -1.98 10.32 -3 11 C-3.99 10.34 -4.98 9.68 -6 9 C-4.68 9 -3.36 9 -2 9 C-2 7.68 -2 6.36 -2 5 C-4.31 5 -6.62 5 -9 5 C-9 4.67 -9 4.34 -9 4 C-7.02 4 -5.04 4 -3 4 C-2.67 3.01 -2.34 2.02 -2 1 C-1.34 0.67 -0.68 0.34 0 0 Z " fill="#CBAC33" transform="translate(89,29)"/>
<path d="M0 0 C0 1.65 0 3.3 0 5 C-0.66 5 -1.32 5 -2 5 C-2 4.34 -2 3.68 -2 3 C-5.3 2.67 -8.6 2.34 -12 2 C-12 1.67 -12 1.34 -12 1 C-10.37512529 0.83211627 -8.75009558 0.66573213 -7.125 0.5 C-6.22007813 0.4071875 -5.31515625 0.314375 -4.3828125 0.21875 C-2 0 -2 0 0 0 Z M-12 5 C-8.7 5 -5.4 5 -2 5 C-2.33 6.32 -2.66 7.64 -3 9 C-3 8.01 -3 7.02 -3 6 C-5.97 6 -8.94 6 -12 6 C-12 5.67 -12 5.34 -12 5 Z " fill="#CAAB2E" transform="translate(72,37)"/>
<path d="M0 0 C4.62 0 9.24 0 14 0 C14.33 1.32 14.66 2.64 15 4 C14.01 3.67 13.02 3.34 12 3 C9.94106379 2.77674186 7.87766347 2.59294241 5.8125 2.4375 C4.18248047 2.31181641 4.18248047 2.31181641 2.51953125 2.18359375 C1.68808594 2.12300781 0.85664063 2.06242187 0 2 C0 1.34 0 0.68 0 0 Z " fill="#C3A018" transform="translate(146,29)"/>
<path d="M0 0 C1.98 0.495 1.98 0.495 4 1 C4.33 2.98 4.66 4.96 5 7 C3.35 7 1.7 7 0 7 C-1.125 2.25 -1.125 2.25 0 0 Z " fill="#C39D0F" transform="translate(29,33)"/>
<path d="M0 0 C0.33 1.65 0.66 3.3 1 5 C-1.64738916 6.4606285 -2.89448334 7 -6 7 C-6 5.68 -6 4.36 -6 3 C-2.78571429 0 -2.78571429 0 0 0 Z " fill="#43361C" transform="translate(34,18)"/>
<path d="M0 0 C6.93 0.495 6.93 0.495 14 1 C14 1.66 14 2.32 14 3 C9.71 3 5.42 3 1 3 C0.67 2.01 0.34 1.02 0 0 Z " fill="#C09D14" transform="translate(113,49)"/>
<path d="M0 0 C3.96 0 7.92 0 12 0 C12.33 1.65 12.66 3.3 13 5 C12.34 4.34 11.68 3.68 11 3 C8.33757179 2.53709779 8.33757179 2.53709779 5.375 2.375 C3.87066406 2.26285156 3.87066406 2.26285156 2.3359375 2.1484375 C1.56507812 2.09945313 0.79421875 2.05046875 0 2 C0 1.34 0 0.68 0 0 Z " fill="#C19C12" transform="translate(115,29)"/>
<path d="M0 0 C1.7074998 1.28062485 3.37373596 2.61767557 5 4 C5 4.66 5 5.32 5 6 C5.66 6 6.32 6 7 6 C6.67 7.32 6.34 8.64 6 10 C5.34 8.68 4.68 7.36 4 6 C3.01 6.33 2.02 6.66 1 7 C0.34 5.02 -0.32 3.04 -1 1 C-0.67 0.67 -0.34 0.34 0 0 Z " fill="#887B51" transform="translate(20,34)"/>
<path d="M0 0 C2.31 0 4.62 0 7 0 C7 1.32 7 2.64 7 4 C4.69 4 2.38 4 0 4 C0 2.68 0 1.36 0 0 Z " fill="#FCFCF6" transform="translate(80,34)"/>
<path d="M0 0 C0.70125 0.721875 1.4025 1.44375 2.125 2.1875 C4.08993073 4.16932126 6.13178456 5.94707153 8.3125 7.6875 C9.6428125 8.8321875 9.6428125 8.8321875 11 10 C11 10.66 11 11.32 11 12 C7.76138697 10.55575365 5.38030837 8.74227753 2.75 6.375 C2.04359375 5.74335937 1.3371875 5.11171875 0.609375 4.4609375 C0.07828125 3.97882812 -0.4528125 3.49671875 -1 3 C-0.67 2.01 -0.34 1.02 0 0 Z " fill="#D4BC60" transform="translate(10,38)"/>
<path d="M0 0 C1.37478516 0.01740234 1.37478516 0.01740234 2.77734375 0.03515625 C3.69644531 0.04417969 4.61554688 0.05320312 5.5625 0.0625 C6.27277344 0.07410156 6.98304687 0.08570312 7.71484375 0.09765625 C7.71484375 0.42765625 7.71484375 0.75765625 7.71484375 1.09765625 C4.74484375 1.09765625 1.77484375 1.09765625 -1.28515625 1.09765625 C-1.28515625 1.75765625 -1.28515625 2.41765625 -1.28515625 3.09765625 C1.35484375 3.09765625 3.99484375 3.09765625 6.71484375 3.09765625 C6.71484375 3.42765625 6.71484375 3.75765625 6.71484375 4.09765625 C3.41484375 4.42765625 0.11484375 4.75765625 -3.28515625 5.09765625 C-3.28515625 0.14039129 -3.28515625 0.14039129 0 0 Z " fill="#D8C26B" transform="translate(98.28515625,27.90234375)"/>
<path d="M0 0 C0.99 0.33 1.98 0.66 3 1 C1.71451591 2.33929505 0.42141845 3.67128643 -0.875 5 C-1.59429687 5.7425 -2.31359375 6.485 -3.0546875 7.25 C-5 9 -5 9 -7 9 C-5.44499019 5.18315774 -2.96404505 2.80804268 0 0 Z " fill="#201916" transform="translate(35,51)"/>
<path d="M0 0 C0.66 0.33 1.32 0.66 2 1 C1.67 5.62 1.34 10.24 1 15 C0.67 14.34 0.34 13.68 0 13 C-0.66 13 -1.32 13 -2 13 C-1.855625 12.34 -1.71125 11.68 -1.5625 11 C-0.87700084 7.34400449 -0.43824485 3.69377805 0 0 Z " fill="#AF8C13" transform="translate(36,34)"/>
<path d="M0 0 C0.66 0.33 1.32 0.66 2 1 C1.01 2.485 1.01 2.485 0 4 C-0.99 4 -1.98 4 -3 4 C-3.33 4.99 -3.66 5.98 -4 7 C-6.5625 8.1875 -6.5625 8.1875 -9 9 C-6.78310162 4.56620325 -4.22271781 2.53363068 0 0 Z " fill="#E3E3E3" transform="translate(45,61)"/>
<path d="M0 0 C0.33 0 0.66 0 1 0 C1 2.97 1 5.94 1 9 C0.34 9 -0.32 9 -1 9 C-1 8.34 -1 7.68 -1 7 C-1.66 7 -2.32 7 -3 7 C-2.38722388 4.03824877 -1.74627478 2.61941217 0 0 Z " fill="#AE9747" transform="translate(26,47)"/>
<path d="M0 0 C0.99 0 1.98 0 3 0 C3 2.64 3 5.28 3 8 C2.01 7.67 1.02 7.34 0 7 C-1.04449911 3.86650268 -0.93423645 3.01031744 0 0 Z " fill="#C6A317" transform="translate(70,42)"/>
<path d="M0 0 C1.31896465 0.92838287 2.62998689 1.86805732 3.9375 2.8125 C4.66839844 3.33457031 5.39929688 3.85664062 6.15234375 4.39453125 C8 6 8 6 9 9 C5.05860922 7.33248852 2.2107188 4.77289351 -1 2 C-0.67 1.34 -0.34 0.68 0 0 Z " fill="#D2BF73" transform="translate(13,34)"/>
<path d="M0 0 C0.33 0.99 0.66 1.98 1 3 C-1.31 4.98 -3.62 6.96 -6 9 C-6.66 8.67 -7.32 8.34 -8 8 C-7.0479279 6.99403703 -6.08812654 5.99538437 -5.125 5 C-4.59132812 4.443125 -4.05765625 3.88625 -3.5078125 3.3125 C-2 2 -2 2 0 2 C0 1.34 0 0.68 0 0 Z " fill="#74684A" transform="translate(48,47)"/>
<path d="M0 0 C0 3 0 3 -2.375 5.6875 C-5 8 -5 8 -7 8 C-5.50902342 4.2047869 -3.24299151 2.38957269 0 0 Z " fill="#251B16" transform="translate(34,48)"/>
<path d="M0 0 C3 3 3 3 4 6 C3.01 6.495 3.01 6.495 2 7 C1.34 7.99 0.68 8.98 0 10 C0 6.7 0 3.4 0 0 Z " fill="#5E5744" transform="translate(27,7)"/>
<path d="M0 0 C4 0 4 0 6 1 C6 1.66 6 2.32 6 3 C4.35 3 2.7 3 1 3 C0.67 4.32 0.34 5.64 0 7 C-0.38133299 5.0085944 -0.71325582 3.00720923 -1 1 C-0.67 0.67 -0.34 0.34 0 0 Z " fill="#434036" transform="translate(19,22)"/>
<path d="M0 0 C0.66 0 1.32 0 2 0 C2.33 1.32 2.66 2.64 3 4 C1.68 4.99 0.36 5.98 -1 7 C-1.04254356 5.00045254 -1.04080783 2.99958364 -1 1 C-0.67 0.67 -0.34 0.34 0 0 Z " fill="#312618" transform="translate(29,13)"/>
<path d="M0 0 C3 0 3 0 6 1 C4.3545622 2.68762851 2.68711423 4.3540349 1 6 C0.67 6 0.34 6 0 6 C0 4.02 0 2.04 0 0 Z " fill="#55451C" transform="translate(37,35)"/>
<path d="M0 0 C0.33 0.66 0.66 1.32 1 2 C-0.65 3.98 -2.3 5.96 -4 8 C-4.66 7.67 -5.32 7.34 -6 7 C-4.19587357 3.73539027 -3.16605307 2.11070205 0 0 Z " fill="#E2E2E2" transform="translate(53,53)"/>
<path d="M0 0 C0.66 0.33 1.32 0.66 2 1 C1 4 1 4 -2.0625 5.6875 C-3.031875 6.120625 -4.00125 6.55375 -5 7 C-3.70700306 4.11562221 -2.34058637 2.12780579 0 0 Z " fill="#A1A2A1" transform="translate(50,50)"/>
<path d="M0 0 C0.33 0 0.66 0 1 0 C1 1.98 1 3.96 1 6 C1.99 6.33 2.98 6.66 4 7 C2.68 8.32 1.36 9.64 0 11 C0 7.37 0 3.74 0 0 Z " fill="#2A2518" transform="translate(21,43)"/>
<path d="M0 0 C1.32 0 2.64 0 4 0 C3 3 3 3 0.9375 4.1875 C0.298125 4.455625 -0.34125 4.72375 -1 5 C-1.33 4.34 -1.66 3.68 -2 3 C-1.34 2.01 -0.68 1.02 0 0 Z " fill="#45391D" transform="translate(28,41)"/>
</svg>
